<?xml version="1.0" encoding="UTF-8"?>
<svg viewBox="0 0 640 480" xmlns="http://www.w3.org/2000/svg" xmlns:xlink="http://www.w3.org/1999/xlink">
 <defs>
  <filter id="s" x="-.28184" y="-.20898" width="1.5637" height="1.418">
   <feGaussianBlur stdDeviation="16.522008"/>
  </filter>
  <filter id="w" x="-.11077" y="-.087241" width="1.2215" height="1.1745">
   <feGaussianBlur stdDeviation="1.944367"/>
  </filter>
  <filter id="p">
   <feGaussianBlur stdDeviation="1.014257"/>
  </filter>
  <filter id="u" x="-.31276" y="-.24633" width="1.6255" height="1.4927">
   <feGaussianBlur stdDeviation="5.489977"/>
  </filter>
  <filter id="v" x="-.20199" y="-.15909" width="1.404" height="1.3182">
   <feGaussianBlur stdDeviation="3.54561"/>
  </filter>
  <filter id="q" x="-.21032" y="-.17208" width="1.4206" height="1.3442">
   <feGaussianBlur stdDeviation="1.018027"/>
  </filter>
  <filter id="t" x="-5.1346" y="-6.8462" width="11.269" height="14.692">
   <feGaussianBlur stdDeviation="24.450637"/>
  </filter>
  <filter id="y" x="-.14986" y="-.11803" width="1.2997" height="1.2361">
   <feGaussianBlur stdDeviation="2.630614"/>
  </filter>
  <filter id="x" x="-.1629" y="-.1283" width="1.3258" height="1.2566">
   <feGaussianBlur stdDeviation="2.859363"/>
  </filter>
  <linearGradient id="ac" x1=".12784" x2=".62074" y1=".44565" y2=".4868">
   <stop stop-color="#fff" offset="0"/>
   <stop stop-color="#fff" stop-opacity="0" offset="1"/>
  </linearGradient>
  <linearGradient id="ab" x1=".13762" x2=".89908" y1=".55782" y2=".52381">
   <stop stop-color="#dc0000" offset="0"/>
   <stop stop-color="#fff" offset="1"/>
  </linearGradient>
  <linearGradient id="z" x1=".54213" x2=".5486" y1=".090178" y2=".48384">
   <stop stop-color="#f90" offset="0"/>
   <stop stop-color="#ffc022" offset="1"/>
  </linearGradient>
  <linearGradient id="aa" x1=".51739" x2=".40631" y1=".98322" y2=".33147">
   <stop stop-color="#9ade00" offset="0"/>
   <stop stop-color="#9ade00" stop-opacity="0" offset="1"/>
  </linearGradient>
  <radialGradient id="r" cx="106.24" cy="-215.7" r="25.816" gradientTransform="matrix(-3.0097e-8 -.96464 1.6519 -2.0286e-7 462.55 -108.12)" gradientUnits="userSpaceOnUse">
   <stop stop-color="#fff" offset="0"/>
   <stop stop-color="#fec54e" offset="1"/>
  </radialGradient>
  <radialGradient id="ad" cx="192.38" cy="207.44" r="55.676" gradientTransform="matrix(1.4074 .15494 -.32637 1.4412 -10.674 -122)" gradientUnits="userSpaceOnUse">
   <stop stop-color="#fff" offset="0"/>
   <stop stop-color="#fff" stop-opacity="0" offset="1"/>
  </radialGradient>
 </defs>
 <use x="95.250481" y="82.945465" width="744.09448" height="1052.3622" filter="url(#t)" xlink:href="#use3925"/>
 <path d="m231.8 150.95c19.627 39.427 20.275 104.68 1.447 145.78-18.828 41.099-50.009 42.5-69.662 3.1292-19.653-39.37-20.344-104.62-1.5437-145.77 18.8-41.154 49.98-42.645 69.66-3.3316" fill="url(#ad)" stroke-width="0"/>
 <g transform="matrix(.78778 0 0 .71549 105.22 105.89)">
  <g stroke-width="0">
   <path d="m407.28-53.518c116.02 165.11-30.81 302.23-40.112 443.83-7.6171 115.95-159.96 131.5-237.17 15.132-106.3-160.21-94.182-302.9-17.901-422.56 74.588-117.01 241.64-104.46 295.08-35.169" fill="url(#z)"/>
   <path d="m66.192 252.38c9.6033 48.759 30.391 99.482 65.094 151.78 77.215 116.37 229.57 100.83 237.19-15.125 2.52-38.36 16.931-71.056 34.719-102.44-95.46 70.673-232.15 65.204-321.38-18.219-5.5154-5.1569-10.706-10.486-15.625-16z" fill="url(#aa)" opacity=".517"/>
   <path d="m308.37-104.37c14.142 1.9748 14.601 5.2432 1.0243 7.3002-13.576 2.057-36.047 2.1237-50.189 0.14897-14.142-1.9748-14.601-5.2432-1.0242-7.3002 13.55-2.053 35.966-2.1241 50.118-0.15889" fill="#804d00" opacity=".517"/>
  </g>
  <path d="m265.08-100.64l29.688-1.2908-1.2908-11.617-6.4539-7.7447-21.943 20.652z" fill="#0e232e" stroke="#000"/>
  <g stroke-width="0">
   <g stroke="#add40b">
    <path d="m261.52 192.98c28.027 36.286 28.936 96.344 2.0299 134.14-26.906 37.798-71.438 39.024-99.466 2.7376-28.027-36.286-28.936-96.344-2.0299-134.14 26.853-37.724 71.278-39.03 99.325-2.9198" fill="#fff" filter="url(#s)" opacity=".273"/>
    <path d="m382.73 162.54c-41.509 53.038-110.21 54.758-153.45 3.8413-43.238-50.916-44.64-135.19-3.1316-188.23 41.509-53.038 110.21-54.758 153.45-3.8413 43.154 50.816 44.647 134.88 3.34 187.96" fill="url(#ab)" filter="url(#s)" opacity=".273"/>
    <g transform="matrix(.46698 0 0 .77594 -127.44 101.36)" fill="#b88100" opacity=".088">
     <path d="m753.39-102.02c1.0326 2.395 1.066 6.359 0.074829 8.8538-0.99127 2.4948-2.632 2.5757-3.6645 0.18068-1.0326-2.395-1.0659-6.359-0.074707-8.8538 0.98926-2.4899 2.626-2.5761 3.6592-0.19272"/>
     <path d="m769.46-102.02c1.0326 2.395 1.066 6.359 0.074707 8.8538-0.99121 2.4948-2.6318 2.5757-3.6645 0.18068-1.0324-2.395-1.0659-6.359-0.074646-8.8538 0.98926-2.4899 2.6259-2.5761 3.6592-0.19272"/>
     <path d="m763.03-73.987c1.0326 2.395 1.0661 6.359 0.07489 8.8538s-2.6318 2.5757-3.6645 0.18068c-1.0324-2.395-1.066-6.359-0.074646-8.8538 0.98926-2.4899 2.626-2.5761 3.6592-0.19272"/>
     <path d="m780.7-73.987c1.0326 2.395 1.066 6.359 0.074829 8.8538-0.99127 2.4948-2.632 2.5757-3.6646 0.18068-1.0324-2.395-1.0659-6.359-0.074646-8.8538 0.98938-2.4899 2.626-2.5761 3.6592-0.19272"/>
     <path d="m772.67-61.051c1.0326 2.395 1.066 6.359 0.074707 8.8538-0.99121 2.4948-2.6317 2.5757-3.6643 0.18069s-1.0662-6.3589-0.074829-8.8538c0.98938-2.4899 2.626-2.5761 3.6593-0.1927"/>
     <path d="m750.18-61.051c1.0325 2.395 1.0659 6.359 0.074829 8.8538-0.99133 2.4948-2.632 2.5757-3.6644 0.18069-1.0327-2.395-1.066-6.3589-0.074951-8.8538 0.98932-2.4899 2.626-2.5761 3.6593-0.1927"/>
     <path d="m743.76-73.987c1.0325 2.395 1.0659 6.359 0.074646 8.8538-0.99127 2.4948-2.6318 2.5757-3.6644 0.18068s-1.066-6.359-0.074829-8.8538c0.98938-2.4899 2.626-2.5761 3.6591-0.19272"/>
    </g>
    <g fill="#f60">
     <g transform="matrix(.5 0 0 .5 -149.85 102.77)" opacity=".088">
      <path d="m753.22-90.088c1.0326 2.395 1.066 6.359 0.074829 8.8538-0.99133 2.4948-2.632 2.5757-3.6644 0.1807-1.0326-2.395-1.066-6.359-0.074829-8.8538 0.98926-2.4899 2.626-2.5761 3.6593-0.1927"/>
      <path d="m769.28-90.088c1.0326 2.395 1.066 6.359 0.074829 8.8538-0.99133 2.4948-2.632 2.5757-3.6644 0.1807-1.0326-2.395-1.066-6.359-0.074829-8.8538 0.98926-2.4899 2.626-2.5761 3.6592-0.1927"/>
      <path d="m762.85-62.059c1.0325 2.395 1.066 6.359 0.074707 8.8538-0.99121 2.4948-2.6318 2.5757-3.6644 0.1807-1.0325-2.395-1.066-6.359-0.074707-8.8538 0.98926-2.4899 2.626-2.5761 3.6592-0.19272"/>
      <path d="m780.52-62.059c1.0326 2.395 1.066 6.359 0.074829 8.8538-0.99121 2.4948-2.6318 2.5757-3.6644 0.1807s-1.066-6.359-0.074829-8.8538c0.98938-2.4899 2.626-2.5761 3.6593-0.19272"/>
      <path d="m772.49-49.122c1.0326 2.395 1.066 6.359 0.074829 8.8538-0.99121 2.4948-2.6318 2.5757-3.6644 0.18069s-1.066-6.359-0.074829-8.8538c0.98938-2.4899 2.626-2.5761 3.6593-0.19272"/>
      <path d="m750-49.122c1.0326 2.395 1.066 6.359 0.074829 8.8538-0.99133 2.4948-2.632 2.5757-3.6644 0.18069-1.0326-2.395-1.066-6.359-0.074829-8.8538 0.98926-2.4899 2.626-2.5761 3.6592-0.19272"/>
      <path d="m743.58-62.059c1.0325 2.395 1.066 6.359 0.074707 8.8538-0.99121 2.4948-2.6318 2.5757-3.6644 0.1807s-1.066-6.359-0.074707-8.8538c0.98926-2.4899 2.6258-2.5761 3.6592-0.19272"/>
     </g>
     <g transform="matrix(.5 0 0 .5 -169.85 102.77)" opacity=".088">
      <path d="m753.22-90.088c1.0326 2.395 1.066 6.359 0.074829 8.8538-0.99133 2.4948-2.632 2.5757-3.6644 0.1807-1.0326-2.395-1.066-6.359-0.074829-8.8538 0.98926-2.4899 2.626-2.5761 3.6593-0.1927"/>
      <path d="m769.28-90.088c1.0326 2.395 1.066 6.359 0.074829 8.8538-0.99133 2.4948-2.632 2.5757-3.6644 0.1807-1.0326-2.395-1.066-6.359-0.074829-8.8538 0.98926-2.4899 2.626-2.5761 3.6592-0.1927"/>
      <path d="m762.85-62.059c1.0325 2.395 1.066 6.359 0.074707 8.8538-0.99121 2.4948-2.6318 2.5757-3.6644 0.1807-1.0325-2.395-1.066-6.359-0.074707-8.8538 0.98926-2.4899 2.626-2.5761 3.6592-0.19272"/>
      <path d="m780.52-62.059c1.0326 2.395 1.066 6.359 0.074829 8.8538-0.99121 2.4948-2.6318 2.5757-3.6644 0.1807s-1.066-6.359-0.074829-8.8538c0.98938-2.4899 2.626-2.5761 3.6593-0.19272"/>
      <path d="m772.49-49.122c1.0326 2.395 1.066 6.359 0.074829 8.8538-0.99121 2.4948-2.6318 2.5757-3.6644 0.18069s-1.066-6.359-0.074829-8.8538c0.98938-2.4899 2.626-2.5761 3.6593-0.19272"/>
      <path d="m750-49.122c1.0326 2.395 1.066 6.359 0.074829 8.8538-0.99133 2.4948-2.632 2.5757-3.6644 0.18069-1.0326-2.395-1.066-6.359-0.074829-8.8538 0.98926-2.4899 2.626-2.5761 3.6592-0.19272"/>
      <path d="m743.58-62.059c1.0325 2.395 1.066 6.359 0.074707 8.8538-0.99121 2.4948-2.6318 2.5757-3.6644 0.1807s-1.066-6.359-0.074707-8.8538c0.98926-2.4899 2.6258-2.5761 3.6592-0.19272"/>
     </g>
     <g transform="matrix(.46698 0 0 .77594 -154.52 110.68)" opacity=".088">
      <path d="m753.39-102.02c1.0326 2.395 1.066 6.359 0.074829 8.8538-0.99127 2.4948-2.632 2.5757-3.6645 0.18068-1.0326-2.395-1.0659-6.359-0.074707-8.8538 0.98926-2.4899 2.626-2.5761 3.6592-0.19272"/>
      <path d="m769.46-102.02c1.0326 2.395 1.066 6.359 0.074707 8.8538-0.99121 2.4948-2.6318 2.5757-3.6645 0.18068-1.0324-2.395-1.0659-6.359-0.074646-8.8538 0.98926-2.4899 2.6259-2.5761 3.6592-0.19272"/>
      <path d="m763.03-73.987c1.0326 2.395 1.0661 6.359 0.07489 8.8538s-2.6318 2.5757-3.6645 0.18068c-1.0324-2.395-1.066-6.359-0.074646-8.8538 0.98926-2.4899 2.626-2.5761 3.6592-0.19272"/>
      <path d="m780.7-73.987c1.0326 2.395 1.066 6.359 0.074829 8.8538-0.99127 2.4948-2.632 2.5757-3.6646 0.18068-1.0324-2.395-1.0659-6.359-0.074646-8.8538 0.98938-2.4899 2.626-2.5761 3.6592-0.19272"/>
      <path d="m772.67-61.051c1.0326 2.395 1.066 6.359 0.074707 8.8538-0.99121 2.4948-2.6317 2.5757-3.6643 0.18069s-1.0662-6.3589-0.074829-8.8538c0.98938-2.4899 2.626-2.5761 3.6593-0.1927"/>
      <path d="m750.18-61.051c1.0325 2.395 1.0659 6.359 0.074829 8.8538-0.99133 2.4948-2.632 2.5757-3.6644 0.18069-1.0327-2.395-1.066-6.3589-0.074951-8.8538 0.98932-2.4899 2.626-2.5761 3.6593-0.1927"/>
      <path d="m743.76-73.987c1.0325 2.395 1.0659 6.359 0.074646 8.8538-0.99127 2.4948-2.6318 2.5757-3.6644 0.18068s-1.066-6.359-0.074829-8.8538c0.98938-2.4899 2.626-2.5761 3.6591-0.19272"/>
     </g>
    </g>
    <g fill="#b88100">
     <g transform="matrix(.5 0 0 .5 -158.85 42.768)" opacity=".088">
      <path d="m753.22-90.088c1.0326 2.395 1.066 6.359 0.074829 8.8538-0.99133 2.4948-2.632 2.5757-3.6644 0.1807-1.0326-2.395-1.066-6.359-0.074829-8.8538 0.98926-2.4899 2.626-2.5761 3.6593-0.1927"/>
      <path d="m769.28-90.088c1.0326 2.395 1.066 6.359 0.074829 8.8538-0.99133 2.4948-2.632 2.5757-3.6644 0.1807-1.0326-2.395-1.066-6.359-0.074829-8.8538 0.98926-2.4899 2.626-2.5761 3.6592-0.1927"/>
      <path d="m762.85-62.059c1.0325 2.395 1.066 6.359 0.074707 8.8538-0.99121 2.4948-2.6318 2.5757-3.6644 0.1807-1.0325-2.395-1.066-6.359-0.074707-8.8538 0.98926-2.4899 2.626-2.5761 3.6592-0.19272"/>
      <path d="m780.52-62.059c1.0326 2.395 1.066 6.359 0.074829 8.8538-0.99121 2.4948-2.6318 2.5757-3.6644 0.1807s-1.066-6.359-0.074829-8.8538c0.98938-2.4899 2.626-2.5761 3.6593-0.19272"/>
      <path d="m772.49-49.122c1.0326 2.395 1.066 6.359 0.074829 8.8538-0.99121 2.4948-2.6318 2.5757-3.6644 0.18069s-1.066-6.359-0.074829-8.8538c0.98938-2.4899 2.626-2.5761 3.6593-0.19272"/>
      <path d="m750-49.122c1.0326 2.395 1.066 6.359 0.074829 8.8538-0.99133 2.4948-2.632 2.5757-3.6644 0.18069-1.0326-2.395-1.066-6.359-0.074829-8.8538 0.98926-2.4899 2.626-2.5761 3.6592-0.19272"/>
      <path d="m743.58-62.059c1.0325 2.395 1.066 6.359 0.074707 8.8538-0.99121 2.4948-2.6318 2.5757-3.6644 0.1807s-1.066-6.359-0.074707-8.8538c0.98926-2.4899 2.6258-2.5761 3.6592-0.19272"/>
     </g>
     <g transform="matrix(.5 0 0 .5 -128.85 42.768)" opacity=".088">
      <path d="m753.22-90.088c1.0326 2.395 1.066 6.359 0.074829 8.8538-0.99133 2.4948-2.632 2.5757-3.6644 0.1807-1.0326-2.395-1.066-6.359-0.074829-8.8538 0.98926-2.4899 2.626-2.5761 3.6593-0.1927"/>
      <path d="m769.28-90.088c1.0326 2.395 1.066 6.359 0.074829 8.8538-0.99133 2.4948-2.632 2.5757-3.6644 0.1807-1.0326-2.395-1.066-6.359-0.074829-8.8538 0.98926-2.4899 2.626-2.5761 3.6592-0.1927"/>
      <path d="m762.85-62.059c1.0325 2.395 1.066 6.359 0.074707 8.8538-0.99121 2.4948-2.6318 2.5757-3.6644 0.1807-1.0325-2.395-1.066-6.359-0.074707-8.8538 0.98926-2.4899 2.626-2.5761 3.6592-0.19272"/>
      <path d="m780.52-62.059c1.0326 2.395 1.066 6.359 0.074829 8.8538-0.99121 2.4948-2.6318 2.5757-3.6644 0.1807s-1.066-6.359-0.074829-8.8538c0.98938-2.4899 2.626-2.5761 3.6593-0.19272"/>
      <path d="m772.49-49.122c1.0326 2.395 1.066 6.359 0.074829 8.8538-0.99121 2.4948-2.6318 2.5757-3.6644 0.18069s-1.066-6.359-0.074829-8.8538c0.98938-2.4899 2.626-2.5761 3.6593-0.19272"/>
      <path d="m750-49.122c1.0326 2.395 1.066 6.359 0.074829 8.8538-0.99133 2.4948-2.632 2.5757-3.6644 0.18069-1.0326-2.395-1.066-6.359-0.074829-8.8538 0.98926-2.4899 2.626-2.5761 3.6592-0.19272"/>
      <path d="m743.58-62.059c1.0325 2.395 1.066 6.359 0.074707 8.8538-0.99121 2.4948-2.6318 2.5757-3.6644 0.1807s-1.066-6.359-0.074707-8.8538c0.98926-2.4899 2.6258-2.5761 3.6592-0.19272"/>
     </g>
     <g transform="matrix(.5 0 0 .5 -98.846 42.768)" opacity=".088">
      <path d="m753.22-90.088c1.0326 2.395 1.066 6.359 0.074829 8.8538-0.99133 2.4948-2.632 2.5757-3.6644 0.1807-1.0326-2.395-1.066-6.359-0.074829-8.8538 0.98926-2.4899 2.626-2.5761 3.6593-0.1927"/>
      <path d="m769.28-90.088c1.0326 2.395 1.066 6.359 0.074829 8.8538-0.99133 2.4948-2.632 2.5757-3.6644 0.1807-1.0326-2.395-1.066-6.359-0.074829-8.8538 0.98926-2.4899 2.626-2.5761 3.6592-0.1927"/>
      <path d="m762.85-62.059c1.0325 2.395 1.066 6.359 0.074707 8.8538-0.99121 2.4948-2.6318 2.5757-3.6644 0.1807-1.0325-2.395-1.066-6.359-0.074707-8.8538 0.98926-2.4899 2.626-2.5761 3.6592-0.19272"/>
      <path d="m780.52-62.059c1.0326 2.395 1.066 6.359 0.074829 8.8538-0.99121 2.4948-2.6318 2.5757-3.6644 0.1807s-1.066-6.359-0.074829-8.8538c0.98938-2.4899 2.626-2.5761 3.6593-0.19272"/>
      <path d="m772.49-49.122c1.0326 2.395 1.066 6.359 0.074829 8.8538-0.99121 2.4948-2.6318 2.5757-3.6644 0.18069s-1.066-6.359-0.074829-8.8538c0.98938-2.4899 2.626-2.5761 3.6593-0.19272"/>
      <path d="m750-49.122c1.0326 2.395 1.066 6.359 0.074829 8.8538-0.99133 2.4948-2.632 2.5757-3.6644 0.18069-1.0326-2.395-1.066-6.359-0.074829-8.8538 0.98926-2.4899 2.626-2.5761 3.6592-0.19272"/>
      <path d="m743.58-62.059c1.0325 2.395 1.066 6.359 0.074707 8.8538-0.99121 2.4948-2.6318 2.5757-3.6644 0.1807s-1.066-6.359-0.074707-8.8538c0.98926-2.4899 2.6258-2.5761 3.6592-0.19272"/>
     </g>
     <g transform="matrix(.5 0 0 .5 -82.711 39.314)" opacity=".088">
      <path d="m753.22-90.088c1.0326 2.395 1.066 6.359 0.074829 8.8538-0.99133 2.4948-2.632 2.5757-3.6644 0.1807-1.0326-2.395-1.066-6.359-0.074829-8.8538 0.98926-2.4899 2.626-2.5761 3.6593-0.1927"/>
      <path d="m769.28-90.088c1.0326 2.395 1.066 6.359 0.074829 8.8538-0.99133 2.4948-2.632 2.5757-3.6644 0.1807-1.0326-2.395-1.066-6.359-0.074829-8.8538 0.98926-2.4899 2.626-2.5761 3.6592-0.1927"/>
      <path d="m762.85-62.059c1.0325 2.395 1.066 6.359 0.074707 8.8538-0.99121 2.4948-2.6318 2.5757-3.6644 0.1807-1.0325-2.395-1.066-6.359-0.074707-8.8538 0.98926-2.4899 2.626-2.5761 3.6592-0.19272"/>
      <path d="m780.52-62.059c1.0326 2.395 1.066 6.359 0.074829 8.8538-0.99121 2.4948-2.6318 2.5757-3.6644 0.1807s-1.066-6.359-0.074829-8.8538c0.98938-2.4899 2.626-2.5761 3.6593-0.19272"/>
      <path d="m772.49-49.122c1.0326 2.395 1.066 6.359 0.074829 8.8538-0.99121 2.4948-2.6318 2.5757-3.6644 0.18069s-1.066-6.359-0.074829-8.8538c0.98938-2.4899 2.626-2.5761 3.6593-0.19272"/>
      <path d="m750-49.122c1.0326 2.395 1.066 6.359 0.074829 8.8538-0.99133 2.4948-2.632 2.5757-3.6644 0.18069-1.0326-2.395-1.066-6.359-0.074829-8.8538 0.98926-2.4899 2.626-2.5761 3.6592-0.19272"/>
      <path d="m743.58-62.059c1.0325 2.395 1.066 6.359 0.074707 8.8538-0.99121 2.4948-2.6318 2.5757-3.6644 0.1807s-1.066-6.359-0.074707-8.8538c0.98926-2.4899 2.6258-2.5761 3.6592-0.19272"/>
     </g>
    </g>
    <g opacity="0">
     <path d="m179.33 57.88c1.0326 2.395 1.0661 6.359 0.074799 8.8537-0.99124 2.4948-2.6319 2.5757-3.6644 0.1807-1.0326-2.395-1.066-6.359-0.074768-8.8538 0.98932-2.4899 2.626-2.5761 3.6592-0.19271"/>
     <path d="m195.39 57.88c1.0326 2.395 1.066 6.359 0.074799 8.8537-0.99124 2.4948-2.6319 2.5757-3.6644 0.1807-1.0326-2.395-1.066-6.359-0.074799-8.8538 0.98935-2.4899 2.626-2.5761 3.6592-0.19271"/>
     <path d="m188.96 85.909c1.0326 2.395 1.066 6.359 0.074829 8.8538-0.99127 2.4948-2.6319 2.5757-3.6645 0.18069s-1.066-6.359-0.074799-8.8538c0.98932-2.4899 2.626-2.5761 3.6593-0.1927"/>
     <path d="m206.63 85.909c1.0326 2.395 1.066 6.359 0.074799 8.8538-0.99124 2.4948-2.6319 2.5757-3.6644 0.18069-1.0326-2.395-1.0661-6.359-0.074799-8.8538 0.98932-2.4899 2.626-2.5761 3.6592-0.1927"/>
     <path d="m198.6 98.846c1.0326 2.395 1.066 6.359 0.074799 8.8538-0.99124 2.4948-2.6319 2.5757-3.6644 0.1807-1.0326-2.395-1.066-6.359-0.074799-8.8538 0.98932-2.4899 2.626-2.5761 3.6593-0.19273"/>
     <path d="m176.11 98.846c1.0325 2.395 1.066 6.359 0.074768 8.8538-0.99124 2.4948-2.6318 2.5757-3.6644 0.1807s-1.066-6.359-0.074799-8.8538c0.98935-2.4899 2.626-2.5761 3.6593-0.19273"/>
     <path d="m169.69 85.909c1.0326 2.395 1.066 6.359 0.074768 8.8538-0.99124 2.4948-2.6319 2.5757-3.6644 0.18069-1.0326-2.395-1.066-6.359-0.074799-8.8538 0.98932-2.4899 2.626-2.5761 3.6593-0.1927"/>
    </g>
    <g fill="#0e232e">
     <g opacity=".02">
      <path d="m310.99 55.015c1.0325 2.395 1.066 6.359 0.074768 8.8538-0.99127 2.4948-2.6319 2.5757-3.6644 0.18069-1.0326-2.395-1.066-6.359-0.074768-8.8538 0.98926-2.4899 2.6259-2.5761 3.6592-0.19272"/>
      <path d="m327.05 55.015c1.0325 2.395 1.066 6.359 0.074768 8.8538-0.99127 2.4948-2.6319 2.5757-3.6644 0.18069-1.0326-2.395-1.066-6.359-0.074829-8.8538 0.98932-2.4899 2.626-2.5761 3.6592-0.19272"/>
      <path d="m320.62 83.044c1.0325 2.395 1.066 6.359 0.074768 8.8538-0.99127 2.4948-2.6319 2.5757-3.6644 0.18069-1.0326-2.395-1.066-6.359-0.074768-8.8538 0.98926-2.4899 2.6259-2.5761 3.6592-0.19271"/>
      <path d="m338.29 83.044c1.0325 2.395 1.066 6.359 0.074768 8.8538-0.99121 2.4948-2.6319 2.5757-3.6644 0.18069s-1.066-6.359-0.074768-8.8538c0.98932-2.4899 2.626-2.5761 3.6592-0.19271"/>
      <path d="m330.26 95.981c1.0326 2.395 1.066 6.359 0.074768 8.8538-0.99121 2.4948-2.6318 2.5757-3.6644 0.1807-1.0325-2.395-1.066-6.359-0.074768-8.8538 0.98932-2.4899 2.626-2.5761 3.6592-0.19273"/>
      <path d="m307.77 95.981c1.0326 2.395 1.066 6.359 0.074829 8.8538-0.99127 2.4948-2.6319 2.5757-3.6645 0.1807-1.0325-2.395-1.066-6.359-0.074768-8.8538 0.98932-2.4899 2.626-2.5761 3.6592-0.19273"/>
      <path d="m301.35 83.044c1.0325 2.395 1.066 6.359 0.074768 8.8538-0.99127 2.4948-2.6319 2.5757-3.6644 0.18069-1.0326-2.395-1.066-6.359-0.074829-8.8538 0.98935-2.4899 2.626-2.5761 3.6592-0.19271"/>
     </g>
     <g filter="url(#u)" opacity=".088">
      <path d="m103.19 163.44c1.0326 2.395 1.066 6.359 0.074768 8.8538-0.99124 2.4948-2.6319 2.5757-3.6644 0.18068-1.0326-2.395-1.066-6.359-0.074768-8.8538 0.98926-2.4899 2.6259-2.5761 3.6592-0.19272"/>
      <path d="m119.25 163.44c1.0326 2.395 1.066 6.359 0.074768 8.8538-0.99124 2.4948-2.6319 2.5757-3.6644 0.18068-1.0326-2.395-1.066-6.359-0.074768-8.8538 0.98926-2.4899 2.6259-2.5761 3.6592-0.19272"/>
      <path d="m112.82 191.47c1.0326 2.395 1.066 6.359 0.074768 8.8538-0.99121 2.4948-2.6319 2.5757-3.6644 0.18066-1.0326-2.395-1.066-6.3589-0.074829-8.8537 0.98929-2.4899 2.626-2.5761 3.6592-0.19272"/>
      <path d="m130.49 191.47c1.0326 2.395 1.066 6.359 0.074768 8.8538-0.99124 2.4948-2.6319 2.5757-3.6644 0.18066-1.0326-2.395-1.066-6.3589-0.074799-8.8537 0.98929-2.4899 2.626-2.5761 3.6592-0.19272"/>
      <path d="m122.46 204.41c1.0326 2.395 1.066 6.359 0.074799 8.8538-0.99124 2.4948-2.6319 2.5757-3.6644 0.1807-1.0326-2.395-1.066-6.359-0.074799-8.8538 0.98929-2.4899 2.626-2.5761 3.6592-0.19272"/>
      <path d="m99.973 204.41c1.0326 2.395 1.066 6.359 0.074829 8.8538-0.99127 2.4948-2.6319 2.5757-3.6644 0.1807-1.0326-2.395-1.0661-6.359-0.074829-8.8538 0.98932-2.4899 2.626-2.5761 3.6592-0.19272"/>
      <path d="m93.548 191.47c1.0325 2.395 1.066 6.359 0.074768 8.8538-0.99127 2.4948-2.6319 2.5757-3.6644 0.18066-1.0326-2.395-1.066-6.3589-0.074799-8.8537 0.98929-2.4899 2.626-2.5761 3.6592-0.19272"/>
     </g>
    </g>
    <g fill="#804d00" filter="url(#y)" opacity=".088">
     <path d="m180.7 146.04c1.0326 2.395 1.066 6.359 0.074768 8.8538-0.99124 2.4948-2.6319 2.5757-3.6644 0.18068-1.0326-2.395-1.066-6.359-0.074768-8.8538 0.98926-2.4899 2.6259-2.5761 3.6592-0.19272"/>
     <path d="m196.77 146.04c1.0326 2.395 1.066 6.359 0.074768 8.8538-0.99124 2.4948-2.6319 2.5757-3.6644 0.18068-1.0326-2.395-1.066-6.359-0.074799-8.8538 0.98929-2.4899 2.626-2.5761 3.6592-0.19272"/>
     <path d="m190.34 174.07c1.0326 2.395 1.066 6.359 0.074768 8.8538-0.99124 2.4948-2.6319 2.5757-3.6644 0.18068-1.0326-2.395-1.066-6.3589-0.074768-8.8537 0.98926-2.4899 2.626-2.5761 3.6592-0.19273"/>
     <path d="m208.01 174.07c1.0326 2.395 1.066 6.359 0.074799 8.8538-0.99124 2.4948-2.6319 2.5757-3.6645 0.18068-1.0325-2.395-1.066-6.3589-0.074768-8.8537 0.98929-2.4899 2.626-2.5761 3.6592-0.19273"/>
     <path d="m199.98 187c1.0326 2.395 1.066 6.359 0.074799 8.8538-0.99127 2.4948-2.6319 2.5757-3.6644 0.18066-1.0326-2.395-1.066-6.3589-0.074799-8.8538 0.98929-2.4899 2.626-2.5761 3.6592-0.1927"/>
     <path d="m177.49 187c1.0326 2.395 1.0661 6.359 0.074829 8.8538s-2.6319 2.5757-3.6645 0.18066-1.066-6.3589-0.074799-8.8538c0.98932-2.4899 2.626-2.5761 3.6592-0.1927"/>
     <path d="m171.07 174.07c1.0325 2.395 1.066 6.359 0.074768 8.8538-0.99124 2.4948-2.6319 2.5757-3.6644 0.18068-1.0326-2.395-1.066-6.3589-0.074799-8.8537 0.98929-2.4899 2.626-2.5761 3.6592-0.19273"/>
    </g>
    <g fill="#f60">
     <g transform="matrix(.5 0 0 .5 -158.85 112.77)" opacity=".088">
      <path d="m753.22-90.088c1.0326 2.395 1.066 6.359 0.074829 8.8538-0.99133 2.4948-2.632 2.5757-3.6644 0.1807-1.0326-2.395-1.066-6.359-0.074829-8.8538 0.98926-2.4899 2.626-2.5761 3.6593-0.1927"/>
      <path d="m769.28-90.088c1.0326 2.395 1.066 6.359 0.074829 8.8538-0.99133 2.4948-2.632 2.5757-3.6644 0.1807-1.0326-2.395-1.066-6.359-0.074829-8.8538 0.98926-2.4899 2.626-2.5761 3.6592-0.1927"/>
      <path d="m762.85-62.059c1.0325 2.395 1.066 6.359 0.074707 8.8538-0.99121 2.4948-2.6318 2.5757-3.6644 0.1807-1.0325-2.395-1.066-6.359-0.074707-8.8538 0.98926-2.4899 2.626-2.5761 3.6592-0.19272"/>
      <path d="m780.52-62.059c1.0326 2.395 1.066 6.359 0.074829 8.8538-0.99121 2.4948-2.6318 2.5757-3.6644 0.1807s-1.066-6.359-0.074829-8.8538c0.98938-2.4899 2.626-2.5761 3.6593-0.19272"/>
      <path d="m772.49-49.122c1.0326 2.395 1.066 6.359 0.074829 8.8538-0.99121 2.4948-2.6318 2.5757-3.6644 0.18069s-1.066-6.359-0.074829-8.8538c0.98938-2.4899 2.626-2.5761 3.6593-0.19272"/>
      <path d="m750-49.122c1.0326 2.395 1.066 6.359 0.074829 8.8538-0.99133 2.4948-2.632 2.5757-3.6644 0.18069-1.0326-2.395-1.066-6.359-0.074829-8.8538 0.98926-2.4899 2.626-2.5761 3.6592-0.19272"/>
      <path d="m743.58-62.059c1.0325 2.395 1.066 6.359 0.074707 8.8538-0.99121 2.4948-2.6318 2.5757-3.6644 0.1807s-1.066-6.359-0.074707-8.8538c0.98926-2.4899 2.6258-2.5761 3.6592-0.19272"/>
     </g>
     <g transform="matrix(.5 0 0 .5 -128.85 112.77)" opacity=".088">
      <path d="m753.22-90.088c1.0326 2.395 1.066 6.359 0.074829 8.8538-0.99133 2.4948-2.632 2.5757-3.6644 0.1807-1.0326-2.395-1.066-6.359-0.074829-8.8538 0.98926-2.4899 2.626-2.5761 3.6593-0.1927"/>
      <path d="m769.28-90.088c1.0326 2.395 1.066 6.359 0.074829 8.8538-0.99133 2.4948-2.632 2.5757-3.6644 0.1807-1.0326-2.395-1.066-6.359-0.074829-8.8538 0.98926-2.4899 2.626-2.5761 3.6592-0.1927"/>
      <path d="m762.85-62.059c1.0325 2.395 1.066 6.359 0.074707 8.8538-0.99121 2.4948-2.6318 2.5757-3.6644 0.1807-1.0325-2.395-1.066-6.359-0.074707-8.8538 0.98926-2.4899 2.626-2.5761 3.6592-0.19272"/>
      <path d="m780.52-62.059c1.0326 2.395 1.066 6.359 0.074829 8.8538-0.99121 2.4948-2.6318 2.5757-3.6644 0.1807s-1.066-6.359-0.074829-8.8538c0.98938-2.4899 2.626-2.5761 3.6593-0.19272"/>
      <path d="m772.49-49.122c1.0326 2.395 1.066 6.359 0.074829 8.8538-0.99121 2.4948-2.6318 2.5757-3.6644 0.18069s-1.066-6.359-0.074829-8.8538c0.98938-2.4899 2.626-2.5761 3.6593-0.19272"/>
      <path d="m750-49.122c1.0326 2.395 1.066 6.359 0.074829 8.8538-0.99133 2.4948-2.632 2.5757-3.6644 0.18069-1.0326-2.395-1.066-6.359-0.074829-8.8538 0.98926-2.4899 2.626-2.5761 3.6592-0.19272"/>
      <path d="m743.58-62.059c1.0325 2.395 1.066 6.359 0.074707 8.8538-0.99121 2.4948-2.6318 2.5757-3.6644 0.1807s-1.066-6.359-0.074707-8.8538c0.98926-2.4899 2.6258-2.5761 3.6592-0.19272"/>
     </g>
    </g>
    <g fill="#9ade00">
     <g opacity=".088">
      <path d="m259.33 140.49c1.0325 2.395 1.066 6.359 0.074768 8.8538-0.99127 2.4948-2.6319 2.5757-3.6644 0.18071-1.0326-2.395-1.0661-6.359-0.074799-8.8538 0.98929-2.4899 2.6259-2.5761 3.6592-0.19272"/>
      <path d="m275.39 140.49c1.0325 2.395 1.066 6.359 0.074738 8.8538-0.99124 2.4948-2.6318 2.5757-3.6644 0.18071s-1.066-6.359-0.074829-8.8538c0.98935-2.4899 2.626-2.5761 3.6592-0.19272"/>
      <path d="m268.96 168.52c1.0326 2.395 1.0661 6.359 0.074829 8.8537-0.99127 2.4948-2.6319 2.5757-3.6645 0.1807s-1.066-6.359-0.074799-8.8537c0.98929-2.4899 2.626-2.5761 3.6593-0.19272"/>
      <path d="m286.63 168.52c1.0325 2.395 1.066 6.359 0.074799 8.8537-0.99127 2.4948-2.6319 2.5757-3.6644 0.1807-1.0326-2.395-1.0661-6.359-0.074829-8.8537 0.98932-2.4899 2.626-2.5761 3.6592-0.19272"/>
      <path d="m278.6 181.46c1.0326 2.395 1.066 6.359 0.074799 8.8538-0.99124 2.4948-2.6319 2.5757-3.6645 0.18068-1.0325-2.395-1.066-6.359-0.074768-8.8538 0.98932-2.4899 2.626-2.5761 3.6593-0.19272"/>
      <path d="m256.11 181.46c1.0326 2.395 1.0661 6.359 0.074799 8.8538-0.99124 2.4948-2.6319 2.5757-3.6644 0.18068-1.0326-2.395-1.066-6.359-0.074799-8.8538 0.98935-2.4899 2.626-2.5761 3.6592-0.19272"/>
      <path d="m249.69 168.52c1.0326 2.395 1.066 6.359 0.074768 8.8537-0.99124 2.4948-2.6319 2.5757-3.6644 0.1807-1.0326-2.395-1.066-6.359-0.074768-8.8537 0.98926-2.4899 2.626-2.5761 3.6592-0.19272"/>
     </g>
     <g opacity=".088">
      <path d="m299.34 297.68c1.0325 2.395 1.066 6.359 0.074768 8.8538-0.99127 2.4948-2.6319 2.5757-3.6645 0.1807s-1.066-6.359-0.074738-8.8538c0.98926-2.4899 2.6259-2.5761 3.6592-0.19272"/>
      <path d="m315.4 297.68c1.0325 2.395 1.066 6.359 0.074768 8.8538-0.99127 2.4948-2.6319 2.5757-3.6644 0.1807-1.0326-2.395-1.066-6.359-0.074829-8.8538 0.98932-2.4899 2.626-2.5761 3.6592-0.19272"/>
      <path d="m308.98 325.71c1.0325 2.395 1.066 6.359 0.074768 8.8537-0.99127 2.4948-2.6319 2.5757-3.6644 0.1807-1.0326-2.395-1.066-6.359-0.074768-8.8537 0.98926-2.4899 2.626-2.5761 3.6592-0.19275"/>
      <path d="m326.65 325.71c1.0325 2.395 1.066 6.359 0.074768 8.8537-0.99121 2.4948-2.6319 2.5757-3.6644 0.1807s-1.066-6.359-0.074768-8.8537c0.98932-2.4899 2.626-2.5761 3.6592-0.19275"/>
      <path d="m318.62 338.65c1.0326 2.395 1.066 6.359 0.074768 8.8537-0.99121 2.4948-2.6318 2.5757-3.6644 0.1807-1.0325-2.395-1.066-6.359-0.074768-8.8537 0.98932-2.4899 2.626-2.5761 3.6592-0.19275"/>
      <path d="m296.13 338.65c1.0326 2.395 1.066 6.359 0.074768 8.8537-0.99124 2.4948-2.6319 2.5757-3.6644 0.1807-1.0326-2.395-1.066-6.359-0.074829-8.8537 0.98929-2.4899 2.626-2.5761 3.6593-0.19275"/>
      <path d="m289.7 325.71c1.0326 2.395 1.066 6.359 0.074768 8.8537-0.99127 2.4948-2.6319 2.5757-3.6644 0.1807-1.0326-2.395-1.066-6.359-0.074799-8.8537 0.98929-2.4899 2.626-2.5761 3.6592-0.19275"/>
     </g>
    </g>
    <g fill="#0e232e" filter="url(#v)" opacity=".01">
     <path d="m219.33 212.49c1.0326 2.395 1.066 6.359 0.074799 8.8538-0.99127 2.4948-2.6319 2.5757-3.6644 0.18068-1.0326-2.395-1.066-6.359-0.074799-8.8538 0.98932-2.4899 2.626-2.5761 3.6592-0.19272"/>
     <path d="m235.39 212.49c1.0326 2.395 1.066 6.359 0.074799 8.8538-0.99124 2.4948-2.6318 2.5757-3.6644 0.18068s-1.066-6.359-0.074829-8.8538c0.98935-2.4899 2.626-2.5761 3.6593-0.19272"/>
     <path d="m228.96 240.52c1.0326 2.395 1.0661 6.359 0.074799 8.8538-0.99124 2.4948-2.6319 2.5757-3.6644 0.18066-1.0326-2.395-1.0661-6.3589-0.074799-8.8537 0.98932-2.4899 2.626-2.5761 3.6593-0.19272"/>
     <path d="m246.63 240.52c1.0325 2.395 1.066 6.359 0.074799 8.8538-0.99124 2.4948-2.6319 2.5757-3.6645 0.18066-1.0325-2.395-1.066-6.3589-0.074768-8.8537 0.98932-2.4899 2.626-2.5761 3.6592-0.19272"/>
     <path d="m238.6 253.46c1.0326 2.395 1.066 6.359 0.074799 8.8538-0.99124 2.4948-2.6319 2.5757-3.6645 0.1807-1.0325-2.395-1.066-6.359-0.074768-8.8538 0.98932-2.4899 2.626-2.5761 3.6592-0.1927"/>
     <path d="m216.11 253.46c1.0326 2.395 1.066 6.359 0.074768 8.8538-0.99121 2.4948-2.6318 2.5757-3.6644 0.1807-1.0325-2.395-1.066-6.359-0.074768-8.8538 0.98932-2.4899 2.626-2.5761 3.6592-0.1927"/>
     <path d="m209.69 240.52c1.0326 2.395 1.066 6.359 0.074799 8.8538-0.99127 2.4948-2.6319 2.5757-3.6645 0.18066s-1.066-6.3589-0.074799-8.8537c0.98932-2.4899 2.626-2.5761 3.6593-0.19272"/>
    </g>
    <g fill="#f60" opacity=".088">
     <path d="m246.5 84.079c1.0326 2.395 1.066 6.359 0.074768 8.8538-0.99124 2.4948-2.6319 2.5757-3.6644 0.18067-1.0326-2.395-1.066-6.359-0.074768-8.8538 0.98929-2.4899 2.6259-2.5761 3.6592-0.19273"/>
     <path d="m262.57 84.079c1.0326 2.395 1.066 6.359 0.074829 8.8538-0.99124 2.4948-2.6319 2.5757-3.6644 0.18067-1.0326-2.395-1.066-6.359-0.074799-8.8538 0.98929-2.4899 2.626-2.5761 3.6592-0.19273"/>
     <path d="m256.14 112.11c1.0325 2.395 1.066 6.359 0.074768 8.8538-0.99127 2.4948-2.6319 2.5757-3.6644 0.18068-1.0326-2.395-1.066-6.359-0.074799-8.8538 0.98932-2.4899 2.626-2.5761 3.6593-0.19272"/>
     <path d="m273.81 112.11c1.0326 2.395 1.066 6.359 0.074799 8.8538-0.99124 2.4948-2.6319 2.5757-3.6645 0.18068s-1.066-6.359-0.074799-8.8538c0.98935-2.4899 2.626-2.5761 3.6593-0.19272"/>
     <path d="m265.78 125.04c1.0325 2.395 1.066 6.359 0.074768 8.8538-0.99121 2.4948-2.6319 2.5757-3.6644 0.18068-1.0326-2.395-1.066-6.359-0.074799-8.8538 0.98929-2.4899 2.626-2.5761 3.6592-0.19273"/>
     <path d="m243.29 125.04c1.0326 2.395 1.066 6.359 0.074829 8.8538-0.99127 2.4948-2.6319 2.5757-3.6644 0.18068-1.0326-2.395-1.066-6.359-0.074829-8.8538 0.98932-2.4899 2.626-2.5761 3.6592-0.19273"/>
     <path d="m236.87 112.11c1.0325 2.395 1.066 6.359 0.074768 8.8538-0.99127 2.4948-2.6319 2.5757-3.6644 0.18068-1.0326-2.395-1.066-6.359-0.074829-8.8538 0.98932-2.4899 2.626-2.5761 3.6592-0.19272"/>
    </g>
    <g fill="#9ade00">
     <g transform="matrix(.5 0 0 .5 -118.85 112.77)" opacity=".088">
      <path d="m753.22-90.088c1.0326 2.395 1.066 6.359 0.074829 8.8538-0.99133 2.4948-2.632 2.5757-3.6644 0.1807-1.0326-2.395-1.066-6.359-0.074829-8.8538 0.98926-2.4899 2.626-2.5761 3.6593-0.1927"/>
      <path d="m769.28-90.088c1.0326 2.395 1.066 6.359 0.074829 8.8538-0.99133 2.4948-2.632 2.5757-3.6644 0.1807-1.0326-2.395-1.066-6.359-0.074829-8.8538 0.98926-2.4899 2.626-2.5761 3.6592-0.1927"/>
      <path d="m762.85-62.059c1.0325 2.395 1.066 6.359 0.074707 8.8538-0.99121 2.4948-2.6318 2.5757-3.6644 0.1807-1.0325-2.395-1.066-6.359-0.074707-8.8538 0.98926-2.4899 2.626-2.5761 3.6592-0.19272"/>
      <path d="m780.52-62.059c1.0326 2.395 1.066 6.359 0.074829 8.8538-0.99121 2.4948-2.6318 2.5757-3.6644 0.1807s-1.066-6.359-0.074829-8.8538c0.98938-2.4899 2.626-2.5761 3.6593-0.19272"/>
      <path d="m772.49-49.122c1.0326 2.395 1.066 6.359 0.074829 8.8538-0.99121 2.4948-2.6318 2.5757-3.6644 0.18069s-1.066-6.359-0.074829-8.8538c0.98938-2.4899 2.626-2.5761 3.6593-0.19272"/>
      <path d="m750-49.122c1.0326 2.395 1.066 6.359 0.074829 8.8538-0.99133 2.4948-2.632 2.5757-3.6644 0.18069-1.0326-2.395-1.066-6.359-0.074829-8.8538 0.98926-2.4899 2.626-2.5761 3.6592-0.19272"/>
      <path d="m743.58-62.059c1.0325 2.395 1.066 6.359 0.074707 8.8538-0.99121 2.4948-2.6318 2.5757-3.6644 0.1807s-1.066-6.359-0.074707-8.8538c0.98926-2.4899 2.6258-2.5761 3.6592-0.19272"/>
     </g>
     <g transform="matrix(.5 0 0 .5 -72.711 100.51)" opacity=".088">
      <path d="m753.22-90.088c1.0326 2.395 1.066 6.359 0.074829 8.8538-0.99133 2.4948-2.632 2.5757-3.6644 0.1807-1.0326-2.395-1.066-6.359-0.074829-8.8538 0.98926-2.4899 2.626-2.5761 3.6593-0.1927"/>
      <path d="m769.28-90.088c1.0326 2.395 1.066 6.359 0.074829 8.8538-0.99133 2.4948-2.632 2.5757-3.6644 0.1807-1.0326-2.395-1.066-6.359-0.074829-8.8538 0.98926-2.4899 2.626-2.5761 3.6592-0.1927"/>
      <path d="m762.85-62.059c1.0325 2.395 1.066 6.359 0.074707 8.8538-0.99121 2.4948-2.6318 2.5757-3.6644 0.1807-1.0325-2.395-1.066-6.359-0.074707-8.8538 0.98926-2.4899 2.626-2.5761 3.6592-0.19272"/>
      <path d="m780.52-62.059c1.0326 2.395 1.066 6.359 0.074829 8.8538-0.99121 2.4948-2.6318 2.5757-3.6644 0.1807s-1.066-6.359-0.074829-8.8538c0.98938-2.4899 2.626-2.5761 3.6593-0.19272"/>
      <path d="m772.49-49.122c1.0326 2.395 1.066 6.359 0.074829 8.8538-0.99121 2.4948-2.6318 2.5757-3.6644 0.18069s-1.066-6.359-0.074829-8.8538c0.98938-2.4899 2.626-2.5761 3.6593-0.19272"/>
      <path d="m750-49.122c1.0326 2.395 1.066 6.359 0.074829 8.8538-0.99133 2.4948-2.632 2.5757-3.6644 0.18069-1.0326-2.395-1.066-6.359-0.074829-8.8538 0.98926-2.4899 2.626-2.5761 3.6592-0.19272"/>
      <path d="m743.58-62.059c1.0325 2.395 1.066 6.359 0.074707 8.8538-0.99121 2.4948-2.6318 2.5757-3.6644 0.1807s-1.066-6.359-0.074707-8.8538c0.98926-2.4899 2.6258-2.5761 3.6592-0.19272"/>
     </g>
    </g>
    <g transform="matrix(.5 0 0 .5 -59.52 68.045)" fill="#b88100" opacity=".088">
     <path d="m753.22-90.088c1.0326 2.395 1.066 6.359 0.074829 8.8538-0.99133 2.4948-2.632 2.5757-3.6644 0.1807-1.0326-2.395-1.066-6.359-0.074829-8.8538 0.98926-2.4899 2.626-2.5761 3.6593-0.1927"/>
     <path d="m769.28-90.088c1.0326 2.395 1.066 6.359 0.074829 8.8538-0.99133 2.4948-2.632 2.5757-3.6644 0.1807-1.0326-2.395-1.066-6.359-0.074829-8.8538 0.98926-2.4899 2.626-2.5761 3.6592-0.1927"/>
     <path d="m762.85-62.059c1.0325 2.395 1.066 6.359 0.074707 8.8538-0.99121 2.4948-2.6318 2.5757-3.6644 0.1807-1.0325-2.395-1.066-6.359-0.074707-8.8538 0.98926-2.4899 2.626-2.5761 3.6592-0.19272"/>
     <path d="m780.52-62.059c1.0326 2.395 1.066 6.359 0.074829 8.8538-0.99121 2.4948-2.6318 2.5757-3.6644 0.1807s-1.066-6.359-0.074829-8.8538c0.98938-2.4899 2.626-2.5761 3.6593-0.19272"/>
     <path d="m772.49-49.122c1.0326 2.395 1.066 6.359 0.074829 8.8538-0.99121 2.4948-2.6318 2.5757-3.6644 0.18069s-1.066-6.359-0.074829-8.8538c0.98938-2.4899 2.626-2.5761 3.6593-0.19272"/>
     <path d="m750-49.122c1.0326 2.395 1.066 6.359 0.074829 8.8538-0.99133 2.4948-2.632 2.5757-3.6644 0.18069-1.0326-2.395-1.066-6.359-0.074829-8.8538 0.98926-2.4899 2.626-2.5761 3.6592-0.19272"/>
     <path d="m743.58-62.059c1.0325 2.395 1.066 6.359 0.074707 8.8538-0.99121 2.4948-2.6318 2.5757-3.6644 0.1807s-1.066-6.359-0.074707-8.8538c0.98926-2.4899 2.6258-2.5761 3.6592-0.19272"/>
    </g>
    <g fill="#9ade00">
     <g opacity=".088">
      <path d="m322.55 226.06c1.0325 2.395 1.066 6.359 0.074768 8.8538-0.99127 2.4948-2.6319 2.5757-3.6644 0.18068-1.0326-2.395-1.066-6.3589-0.074829-8.8537 0.98932-2.4899 2.626-2.5761 3.6592-0.19272"/>
      <path d="m338.61 226.06c1.0325 2.395 1.066 6.359 0.074768 8.8538-0.99127 2.4948-2.6319 2.5757-3.6644 0.18068-1.0326-2.395-1.066-6.3589-0.074829-8.8537 0.98932-2.4899 2.626-2.5761 3.6592-0.19272"/>
      <path d="m332.18 254.09c1.0325 2.395 1.066 6.359 0.074768 8.8538-0.99127 2.4948-2.6319 2.5757-3.6644 0.18066-1.0326-2.395-1.066-6.359-0.074768-8.8537 0.98926-2.4899 2.6259-2.5761 3.6592-0.19273"/>
      <path d="m349.85 254.09c1.0325 2.395 1.066 6.359 0.074768 8.8538-0.99121 2.4948-2.6319 2.5757-3.6644 0.18066s-1.066-6.359-0.074768-8.8537c0.98932-2.4899 2.626-2.5761 3.6592-0.19273"/>
      <path d="m341.82 267.03c1.0325 2.395 1.066 6.359 0.074768 8.8538-0.99121 2.4948-2.6319 2.5757-3.6644 0.18066s-1.066-6.359-0.074768-8.8537c0.98932-2.4899 2.626-2.5761 3.6592-0.19272"/>
      <path d="m319.33 267.03c1.0326 2.395 1.066 6.359 0.074829 8.8538-0.99127 2.4948-2.6319 2.5757-3.6645 0.18066-1.0325-2.395-1.066-6.359-0.074768-8.8537 0.98932-2.4899 2.626-2.5761 3.6592-0.19272"/>
      <path d="m312.91 254.09c1.0326 2.395 1.066 6.359 0.074829 8.8538-0.99127 2.4948-2.6319 2.5757-3.6644 0.18066-1.0326-2.395-1.066-6.359-0.074829-8.8537 0.98932-2.4899 2.626-2.5761 3.6592-0.19273"/>
     </g>
     <g opacity=".088">
      <path d="m282.55 226.06c1.0326 2.395 1.066 6.359 0.074829 8.8538-0.99124 2.4948-2.6319 2.5757-3.6644 0.18068-1.0326-2.395-1.0661-6.3589-0.074799-8.8537 0.98929-2.4899 2.626-2.5761 3.6592-0.19272"/>
      <path d="m298.61 226.06c1.0326 2.395 1.066 6.359 0.074829 8.8538-0.99124 2.4948-2.6319 2.5757-3.6644 0.18068-1.0326-2.395-1.066-6.3589-0.074829-8.8537 0.98935-2.4899 2.626-2.5761 3.6592-0.19272"/>
      <path d="m292.18 254.09c1.0326 2.395 1.066 6.359 0.074799 8.8538-0.99124 2.4948-2.6319 2.5757-3.6644 0.18066-1.0326-2.395-1.066-6.359-0.074799-8.8537 0.98932-2.4899 2.626-2.5761 3.6592-0.19273"/>
      <path d="m309.85 254.09c1.0325 2.395 1.066 6.359 0.074768 8.8538-0.99127 2.4948-2.6319 2.5757-3.6644 0.18066-1.0326-2.395-1.066-6.359-0.074768-8.8537 0.98926-2.4899 2.6259-2.5761 3.6592-0.19273"/>
      <path d="m301.82 267.03c1.0325 2.395 1.066 6.359 0.074768 8.8538-0.99127 2.4948-2.6319 2.5757-3.6644 0.18066-1.0326-2.395-1.066-6.359-0.074799-8.8537 0.98926-2.4899 2.626-2.5761 3.6592-0.19272"/>
      <path d="m279.33 267.03c1.0326 2.395 1.066 6.359 0.074768 8.8538-0.99121 2.4948-2.6319 2.5757-3.6644 0.18066-1.0326-2.395-1.066-6.359-0.074829-8.8537 0.98932-2.4899 2.626-2.5761 3.6593-0.19272"/>
      <path d="m272.91 254.09c1.0325 2.395 1.066 6.359 0.074768 8.8538-0.99121 2.4948-2.6319 2.5757-3.6644 0.18066s-1.066-6.359-0.074768-8.8537c0.98926-2.4899 2.626-2.5761 3.6592-0.19273"/>
     </g>
     <g transform="matrix(.5 0 0 .5 -33.016 101.15)" opacity=".088">
      <path d="m753.22-90.088c1.0326 2.395 1.066 6.359 0.074829 8.8538-0.99133 2.4948-2.632 2.5757-3.6644 0.1807-1.0326-2.395-1.066-6.359-0.074829-8.8538 0.98926-2.4899 2.626-2.5761 3.6593-0.1927"/>
      <path d="m769.28-90.088c1.0326 2.395 1.066 6.359 0.074829 8.8538-0.99133 2.4948-2.632 2.5757-3.6644 0.1807-1.0326-2.395-1.066-6.359-0.074829-8.8538 0.98926-2.4899 2.626-2.5761 3.6592-0.1927"/>
      <path d="m762.85-62.059c1.0325 2.395 1.066 6.359 0.074707 8.8538-0.99121 2.4948-2.6318 2.5757-3.6644 0.1807-1.0325-2.395-1.066-6.359-0.074707-8.8538 0.98926-2.4899 2.626-2.5761 3.6592-0.19272"/>
      <path d="m780.52-62.059c1.0326 2.395 1.066 6.359 0.074829 8.8538-0.99121 2.4948-2.6318 2.5757-3.6644 0.1807s-1.066-6.359-0.074829-8.8538c0.98938-2.4899 2.626-2.5761 3.6593-0.19272"/>
      <path d="m772.49-49.122c1.0326 2.395 1.066 6.359 0.074829 8.8538-0.99121 2.4948-2.6318 2.5757-3.6644 0.18069s-1.066-6.359-0.074829-8.8538c0.98938-2.4899 2.626-2.5761 3.6593-0.19272"/>
      <path d="m750-49.122c1.0326 2.395 1.066 6.359 0.074829 8.8538-0.99133 2.4948-2.632 2.5757-3.6644 0.18069-1.0326-2.395-1.066-6.359-0.074829-8.8538 0.98926-2.4899 2.626-2.5761 3.6592-0.19272"/>
      <path d="m743.58-62.059c1.0325 2.395 1.066 6.359 0.074707 8.8538-0.99121 2.4948-2.6318 2.5757-3.6644 0.1807s-1.066-6.359-0.074707-8.8538c0.98926-2.4899 2.6258-2.5761 3.6592-0.19272"/>
     </g>
    </g>
    <g transform="matrix(.5 0 0 .5 -100.14 75.024)" fill="#804d00" opacity=".088">
     <path d="m753.22-90.088c1.0326 2.395 1.066 6.359 0.074829 8.8538-0.99133 2.4948-2.632 2.5757-3.6644 0.1807-1.0326-2.395-1.066-6.359-0.074829-8.8538 0.98926-2.4899 2.626-2.5761 3.6593-0.1927"/>
     <path d="m769.28-90.088c1.0326 2.395 1.066 6.359 0.074829 8.8538-0.99133 2.4948-2.632 2.5757-3.6644 0.1807-1.0326-2.395-1.066-6.359-0.074829-8.8538 0.98926-2.4899 2.626-2.5761 3.6592-0.1927"/>
     <path d="m762.85-62.059c1.0325 2.395 1.066 6.359 0.074707 8.8538-0.99121 2.4948-2.6318 2.5757-3.6644 0.1807-1.0325-2.395-1.066-6.359-0.074707-8.8538 0.98926-2.4899 2.626-2.5761 3.6592-0.19272"/>
     <path d="m780.52-62.059c1.0326 2.395 1.066 6.359 0.074829 8.8538-0.99121 2.4948-2.6318 2.5757-3.6644 0.1807s-1.066-6.359-0.074829-8.8538c0.98938-2.4899 2.626-2.5761 3.6593-0.19272"/>
     <path d="m772.49-49.122c1.0326 2.395 1.066 6.359 0.074829 8.8538-0.99121 2.4948-2.6318 2.5757-3.6644 0.18069s-1.066-6.359-0.074829-8.8538c0.98938-2.4899 2.626-2.5761 3.6593-0.19272"/>
     <path d="m750-49.122c1.0326 2.395 1.066 6.359 0.074829 8.8538-0.99133 2.4948-2.632 2.5757-3.6644 0.18069-1.0326-2.395-1.066-6.359-0.074829-8.8538 0.98926-2.4899 2.626-2.5761 3.6592-0.19272"/>
     <path d="m743.58-62.059c1.0325 2.395 1.066 6.359 0.074707 8.8538-0.99121 2.4948-2.6318 2.5757-3.6644 0.1807s-1.066-6.359-0.074707-8.8538c0.98926-2.4899 2.6258-2.5761 3.6592-0.19272"/>
    </g>
    <g transform="matrix(.5 0 0 .5 -58.527 38.236)" fill="#b88100" opacity=".088">
     <path d="m753.22-90.088c1.0326 2.395 1.066 6.359 0.074829 8.8538-0.99133 2.4948-2.632 2.5757-3.6644 0.1807-1.0326-2.395-1.066-6.359-0.074829-8.8538 0.98926-2.4899 2.626-2.5761 3.6593-0.1927"/>
     <path d="m769.28-90.088c1.0326 2.395 1.066 6.359 0.074829 8.8538-0.99133 2.4948-2.632 2.5757-3.6644 0.1807-1.0326-2.395-1.066-6.359-0.074829-8.8538 0.98926-2.4899 2.626-2.5761 3.6592-0.1927"/>
     <path d="m762.85-62.059c1.0325 2.395 1.066 6.359 0.074707 8.8538-0.99121 2.4948-2.6318 2.5757-3.6644 0.1807-1.0325-2.395-1.066-6.359-0.074707-8.8538 0.98926-2.4899 2.626-2.5761 3.6592-0.19272"/>
     <path d="m780.52-62.059c1.0326 2.395 1.066 6.359 0.074829 8.8538-0.99121 2.4948-2.6318 2.5757-3.6644 0.1807s-1.066-6.359-0.074829-8.8538c0.98938-2.4899 2.626-2.5761 3.6593-0.19272"/>
     <path d="m772.49-49.122c1.0326 2.395 1.066 6.359 0.074829 8.8538-0.99121 2.4948-2.6318 2.5757-3.6644 0.18069s-1.066-6.359-0.074829-8.8538c0.98938-2.4899 2.626-2.5761 3.6593-0.19272"/>
     <path d="m750-49.122c1.0326 2.395 1.066 6.359 0.074829 8.8538-0.99133 2.4948-2.632 2.5757-3.6644 0.18069-1.0326-2.395-1.066-6.359-0.074829-8.8538 0.98926-2.4899 2.626-2.5761 3.6592-0.19272"/>
     <path d="m743.58-62.059c1.0325 2.395 1.066 6.359 0.074707 8.8538-0.99121 2.4948-2.6318 2.5757-3.6644 0.1807s-1.066-6.359-0.074707-8.8538c0.98926-2.4899 2.6258-2.5761 3.6592-0.19272"/>
    </g>
    <g filter="url(#x)" opacity="0">
     <path d="m265.8 338.6c1.0326 2.395 1.0661 6.3589 0.074799 8.8537-0.99121 2.4948-2.6319 2.5757-3.6644 0.1807s-1.066-6.359-0.074768-8.8538c0.98932-2.4899 2.626-2.5761 3.6592-0.19272"/>
     <path d="m281.86 338.6c1.0326 2.395 1.066 6.3589 0.074829 8.8537-0.99124 2.4948-2.6319 2.5757-3.6645 0.1807s-1.066-6.359-0.074799-8.8538c0.98932-2.4899 2.626-2.5761 3.6593-0.19272"/>
     <path d="m275.43 366.63c1.0326 2.395 1.066 6.359 0.074768 8.8538-0.99124 2.4948-2.6318 2.5756-3.6644 0.1807-1.0326-2.395-1.0661-6.359-0.074799-8.8538 0.98932-2.4899 2.626-2.576 3.6592-0.19269"/>
     <path d="m293.1 366.63c1.0325 2.395 1.066 6.359 0.074768 8.8538-0.99124 2.4948-2.6319 2.5756-3.6644 0.1807-1.0326-2.395-1.066-6.359-0.074768-8.8538 0.98926-2.4899 2.626-2.576 3.6592-0.19269"/>
     <path d="m285.07 379.57c1.0326 2.395 1.066 6.3589 0.074768 8.8537-0.99121 2.4948-2.6319 2.5757-3.6644 0.1807-1.0326-2.395-1.0661-6.359-0.074799-8.8538 0.98929-2.4899 2.626-2.576 3.6592-0.19269"/>
     <path d="m262.58 379.57c1.0326 2.395 1.066 6.3589 0.074768 8.8537-0.99127 2.4948-2.6319 2.5757-3.6644 0.1807-1.0326-2.395-1.066-6.359-0.074829-8.8538 0.98932-2.4899 2.626-2.576 3.6593-0.19269"/>
     <path d="m256.16 366.63c1.0326 2.395 1.0661 6.359 0.074799 8.8538-0.99124 2.4948-2.6319 2.5756-3.6644 0.1807-1.0326-2.395-1.066-6.359-0.074768-8.8538 0.98932-2.4899 2.626-2.576 3.6592-0.19269"/>
    </g>
    <g fill="#804d00" opacity=".044">
     <path d="m265.8 410.6c1.0326 2.395 1.0661 6.359 0.074799 8.8538-0.99121 2.4948-2.6319 2.5757-3.6644 0.1807s-1.066-6.359-0.074768-8.8538c0.98932-2.4899 2.626-2.5761 3.6592-0.19272"/>
     <path d="m281.86 410.6c1.0326 2.395 1.066 6.359 0.074829 8.8538-0.99124 2.4948-2.6319 2.5757-3.6645 0.1807s-1.066-6.359-0.074799-8.8538c0.98932-2.4899 2.626-2.5761 3.6593-0.19272"/>
     <path d="m275.43 438.63c1.0326 2.395 1.066 6.359 0.074768 8.8537-0.99124 2.4948-2.6318 2.5757-3.6644 0.1807s-1.0661-6.359-0.074799-8.8537c0.98932-2.4899 2.626-2.5761 3.6592-0.19275"/>
     <path d="m293.1 438.63c1.0325 2.395 1.066 6.359 0.074768 8.8537-0.99124 2.4948-2.6319 2.5757-3.6644 0.1807-1.0326-2.395-1.066-6.359-0.074768-8.8537 0.98926-2.4899 2.626-2.5761 3.6592-0.19275"/>
     <path d="m285.07 451.57c1.0326 2.395 1.066 6.359 0.074768 8.8537-0.99121 2.4948-2.6319 2.5757-3.6644 0.1807-1.0326-2.395-1.0661-6.359-0.074799-8.8537 0.98929-2.4899 2.626-2.5761 3.6592-0.19275"/>
     <path d="m262.58 451.57c1.0326 2.395 1.066 6.359 0.074768 8.8537-0.99127 2.4948-2.6319 2.5757-3.6644 0.1807-1.0326-2.395-1.066-6.359-0.074829-8.8537 0.98932-2.4899 2.626-2.5761 3.6593-0.19275"/>
     <path d="m256.16 438.63c1.0326 2.395 1.0661 6.359 0.074799 8.8537-0.99124 2.4948-2.6319 2.5757-3.6644 0.1807-1.0326-2.395-1.066-6.359-0.074768-8.8537 0.98932-2.4899 2.626-2.5761 3.6592-0.19275"/>
    </g>
    <g fill="#9ade00" opacity=".088">
     <path d="m225.8 410.6c1.0326 2.395 1.0661 6.359 0.074768 8.8538-0.99124 2.4948-2.6318 2.5757-3.6644 0.1807s-1.066-6.359-0.074799-8.8538c0.98935-2.4899 2.626-2.5761 3.6593-0.19272"/>
     <path d="m241.86 410.6c1.0325 2.395 1.066 6.359 0.074768 8.8538-0.99124 2.4948-2.6319 2.5757-3.6645 0.1807s-1.066-6.359-0.074799-8.8538c0.98932-2.4899 2.626-2.5761 3.6593-0.19272"/>
     <path d="m235.43 438.63c1.0326 2.395 1.066 6.359 0.074799 8.8537-0.99127 2.4948-2.6319 2.5757-3.6644 0.1807-1.0326-2.395-1.066-6.359-0.074768-8.8537 0.98932-2.4899 2.626-2.5761 3.6592-0.19275"/>
     <path d="m253.1 438.63c1.0325 2.395 1.066 6.359 0.074768 8.8537-0.99121 2.4948-2.6318 2.5757-3.6644 0.1807-1.0325-2.395-1.066-6.359-0.074768-8.8537 0.98932-2.4899 2.626-2.5761 3.6592-0.19275"/>
     <path d="m245.07 451.57c1.0326 2.395 1.066 6.359 0.074768 8.8537-0.99121 2.4948-2.6319 2.5757-3.6644 0.1807-1.0326-2.395-1.0661-6.359-0.074799-8.8537 0.98932-2.4899 2.626-2.5761 3.6592-0.19275"/>
     <path d="m222.58 451.57c1.0326 2.395 1.066 6.359 0.074799 8.8537-0.99127 2.4948-2.6319 2.5757-3.6644 0.1807-1.0326-2.395-1.0661-6.359-0.074799-8.8537 0.98932-2.4899 2.626-2.5761 3.6592-0.19275"/>
     <path d="m216.16 438.63c1.0326 2.395 1.066 6.359 0.074829 8.8537-0.99127 2.4948-2.6319 2.5757-3.6644 0.1807-1.0326-2.395-1.066-6.359-0.074829-8.8537 0.98935-2.4899 2.626-2.5761 3.6593-0.19275"/>
    </g>
    <g fill="#f90" filter="url(#w)" opacity=".088">
     <path d="m132.93 253.8c1.0326 2.395 1.066 6.359 0.074799 8.8537-0.99124 2.4948-2.6319 2.5757-3.6645 0.1807s-1.066-6.359-0.074799-8.8538c0.98935-2.4899 2.626-2.5761 3.6593-0.1927"/>
     <path d="m148.99 253.8c1.0326 2.395 1.066 6.359 0.074799 8.8537-0.99124 2.4948-2.6319 2.5757-3.6644 0.1807-1.0326-2.395-1.066-6.359-0.074829-8.8538 0.98935-2.4899 2.626-2.5761 3.6593-0.1927"/>
     <path d="m142.57 281.82c1.0326 2.395 1.066 6.359 0.074799 8.8537-0.99124 2.4948-2.6319 2.5757-3.6644 0.1807-1.0326-2.395-1.066-6.359-0.074799-8.8538 0.98932-2.4899 2.626-2.5761 3.6593-0.19269"/>
     <path d="m160.24 281.82c1.0326 2.395 1.066 6.359 0.074799 8.8537-0.99127 2.4948-2.6319 2.5757-3.6644 0.1807-1.0326-2.395-1.066-6.359-0.074799-8.8538 0.98932-2.4899 2.626-2.5761 3.6593-0.19269"/>
     <path d="m152.21 294.76c1.0326 2.395 1.066 6.359 0.074799 8.8538-0.99127 2.4948-2.6319 2.5757-3.6644 0.1807-1.0326-2.395-1.066-6.359-0.074768-8.8538 0.98929-2.4899 2.626-2.5761 3.6592-0.19272"/>
     <path d="m129.72 294.76c1.0326 2.395 1.066 6.359 0.074799 8.8538-0.99124 2.4948-2.6319 2.5757-3.6644 0.1807-1.0326-2.395-1.0661-6.359-0.074799-8.8538 0.98932-2.4899 2.626-2.5761 3.6593-0.19272"/>
     <path d="m123.29 281.82c1.0326 2.395 1.066 6.359 0.074829 8.8537-0.99127 2.4948-2.6319 2.5757-3.6644 0.1807-1.0326-2.395-1.066-6.359-0.074829-8.8538 0.98932-2.4899 2.626-2.5761 3.6593-0.19269"/>
    </g>
    <g fill="#ffc022">
     <g opacity=".02">
      <path d="m212.94 294.48c1.0326 2.395 1.066 6.359 0.074799 8.8538-0.99127 2.4948-2.6319 2.5757-3.6644 0.1807-1.0326-2.395-1.066-6.359-0.074799-8.8538 0.98929-2.4899 2.626-2.5761 3.6592-0.19272"/>
      <path d="m229.01 294.48c1.0326 2.395 1.066 6.359 0.074738 8.8538-0.99124 2.4948-2.6319 2.5757-3.6644 0.1807-1.0326-2.395-1.066-6.359-0.074768-8.8538 0.98926-2.4899 2.6259-2.5761 3.6592-0.19272"/>
      <path d="m222.58 322.51c1.0325 2.395 1.066 6.359 0.074768 8.8537-0.99124 2.4948-2.6319 2.5757-3.6644 0.1807-1.0326-2.395-1.066-6.359-0.074799-8.8537 0.98929-2.4899 2.626-2.5761 3.6592-0.19275"/>
      <path d="m240.25 322.51c1.0326 2.395 1.066 6.359 0.074768 8.8537-0.99121 2.4948-2.6319 2.5757-3.6644 0.1807-1.0326-2.395-1.0661-6.359-0.074799-8.8537 0.98926-2.4899 2.6259-2.5761 3.6592-0.19275"/>
      <path d="m232.22 335.44c1.0326 2.395 1.066 6.359 0.074768 8.8538-0.99121 2.4948-2.6319 2.5757-3.6644 0.1807s-1.066-6.359-0.074799-8.8538c0.98929-2.4899 2.626-2.5761 3.6593-0.19272"/>
      <path d="m209.73 335.44c1.0326 2.395 1.066 6.359 0.074799 8.8538-0.99124 2.4948-2.6319 2.5757-3.6644 0.1807-1.0326-2.395-1.066-6.359-0.074799-8.8538 0.98929-2.4899 2.626-2.5761 3.6592-0.19272"/>
      <path d="m203.31 322.51c1.0326 2.395 1.066 6.359 0.074799 8.8537-0.99124 2.4948-2.6319 2.5757-3.6644 0.1807-1.0326-2.395-1.066-6.359-0.074799-8.8537 0.98926-2.4899 2.626-2.5761 3.6592-0.19275"/>
     </g>
     <g opacity=".088">
      <path d="m324.58 266.08c1.0326 2.395 1.066 6.359 0.074768 8.8538-0.99121 2.4948-2.6318 2.5757-3.6644 0.18066-1.0325-2.395-1.066-6.3589-0.074768-8.8537 0.98932-2.4899 2.626-2.5761 3.6592-0.19269"/>
      <path d="m340.64 266.08c1.0326 2.395 1.066 6.359 0.074768 8.8538-0.99121 2.4948-2.6318 2.5757-3.6644 0.18066-1.0325-2.395-1.066-6.3589-0.074768-8.8537 0.98932-2.4899 2.626-2.5761 3.6592-0.19269"/>
      <path d="m334.21 294.11c1.0326 2.395 1.066 6.359 0.074768 8.8538-0.99121 2.4948-2.6318 2.5756-3.6644 0.18066-1.0325-2.395-1.066-6.359-0.074768-8.8538 0.98932-2.4899 2.626-2.576 3.6592-0.19269"/>
      <path d="m351.88 294.11c1.0326 2.395 1.066 6.359 0.074829 8.8538-0.99127 2.4948-2.6319 2.5756-3.6644 0.18066-1.0326-2.395-1.066-6.359-0.074829-8.8538 0.98932-2.4899 2.626-2.576 3.6592-0.19269"/>
      <path d="m343.85 307.04c1.0326 2.395 1.066 6.359 0.074829 8.8538-0.99127 2.4948-2.6319 2.5757-3.6644 0.18066-1.0326-2.395-1.066-6.3589-0.074829-8.8538 0.98932-2.4899 2.626-2.576 3.6592-0.19269"/>
      <path d="m321.36 307.04c1.0325 2.395 1.066 6.359 0.074768 8.8538-0.99127 2.4948-2.6319 2.5757-3.6644 0.18066-1.0326-2.395-1.066-6.3589-0.074768-8.8538 0.98926-2.4899 2.6259-2.576 3.6592-0.19269"/>
      <path d="m314.94 294.11c1.0325 2.395 1.066 6.359 0.074768 8.8538-0.99121 2.4948-2.6319 2.5756-3.6644 0.18066-1.0325-2.395-1.066-6.359-0.074768-8.8538 0.98932-2.4899 2.626-2.576 3.6592-0.19269"/>
     </g>
    </g>
   </g>
   <g stroke="#c97413">
    <path d="m231.42 57.018c-1.4422-9.2029-0.41714-19.788 3.0354-26.963 4.7565-9.8846 12.318-9.5532 16.884 0.74323 2.0586 4.6419 3.162 10.517 3.3127 16.475-0.54367-3.5004-1.4546-6.8007-2.7144-9.6414-4.5663-10.296-12.113-10.648-16.87-0.76388-2.6211 5.4468-3.842 12.869-3.6484 20.15z" fill="#0e232e" opacity=".132"/>
    <path d="m250.02 34.962c4.5164 6.8211 4.6628 18.111 0.32709 25.216-4.3357 7.1054-11.512 7.3358-16.028 0.51461-4.5164-6.8211-4.6628-18.111-0.32709-25.216 4.3272-7.0914 11.486-7.3369 16.005-0.54887" fill="url(#r)" filter="url(#p)" opacity=".488"/>
    <path d="m237.11 52.818c-1.3355 1.0712-1.3788 2.8441-0.09671 3.9599s3.404 1.152 4.7395 0.080807c1.3354-1.0712 1.3788-2.8441 0.09668-3.9599-1.2795-1.1136-3.3964-1.1522-4.7328-0.086189" fill="#fff" filter="url(#q)" opacity=".595"/>
   </g>
   <g transform="matrix(.93397 0 0 1.5519 -190.91 407.59)" fill="#b88100" opacity=".088" stroke="#add40b">
    <path d="m752.04-112.82c1.0325 2.395 1.066 6.359 0.074768 8.8538-0.99127 2.4948-2.6319 2.5757-3.6645 0.1807s-1.066-6.359-0.074707-8.8538c0.98926-2.4899 2.626-2.5761 3.6592-0.1927"/>
    <path d="m768.1-112.82c1.0325 2.395 1.066 6.359 0.074707 8.8538-0.99121 2.4948-2.6318 2.5757-3.6644 0.1807s-1.066-6.359-0.074829-8.8538c0.98926-2.4899 2.6259-2.5761 3.6592-0.1927"/>
    <path d="m761.67-84.795c1.0325 2.395 1.066 6.359 0.074768 8.8538-0.99115 2.4948-2.6319 2.5757-3.6644 0.18069-1.0326-2.395-1.066-6.359-0.074768-8.8538 0.98932-2.4899 2.626-2.5761 3.6592-0.19272"/>
    <path d="m779.34-84.795c1.0326 2.395 1.066 6.359 0.074768 8.8538-0.99121 2.4948-2.6319 2.5757-3.6645 0.18069-1.0325-2.395-1.066-6.359-0.074707-8.8538 0.98932-2.4899 2.6259-2.5761 3.6592-0.19272"/>
    <path d="m771.31-71.858c1.0326 2.395 1.066 6.359 0.074707 8.8538-0.99115 2.4948-2.6318 2.5757-3.6644 0.18069-1.0325-2.395-1.066-6.359-0.074768-8.8538 0.98932-2.4899 2.626-2.5761 3.6592-0.19271"/>
    <path d="m748.82-71.858c1.0326 2.395 1.066 6.359 0.074768 8.8538-0.99127 2.4948-2.6318 2.5757-3.6644 0.18069s-1.0661-6.359-0.074829-8.8538c0.98926-2.4899 2.6259-2.5761 3.6592-0.19271"/>
    <path d="m742.4-84.795c1.0325 2.395 1.066 6.359 0.074768 8.8538-0.99127 2.4948-2.632 2.5757-3.6644 0.18069-1.0326-2.395-1.0661-6.359-0.074829-8.8538 0.98926-2.4899 2.626-2.5761 3.6592-0.19272"/>
   </g>
   <g stroke="#c97413">
    <path d="m291.44 18.694c-0.88123-6.0074-0.25488-12.917 1.8547-17.601 2.9063-6.4525 7.5266-6.2362 10.317 0.48516 1.2578 3.0301 1.9321 6.8654 2.0241 10.754-0.33221-2.285-0.88879-4.4393-1.6585-6.2937-2.7901-6.7213-7.4014-6.9511-10.308-0.49864-1.6015 3.5555-2.3475 8.4003-2.2292 13.153z" fill="#0e232e" opacity=".132"/>
    <path d="m302.81 4.2966c2.7596 4.4527 2.8491 11.822 0.19989 16.46-2.6492 4.6382-7.0339 4.7886-9.7935 0.33592s-2.8491-11.822-0.19983-16.46c2.644-4.6291 7.0181-4.7894 9.7796-0.35829" fill="url(#r)" filter="url(#p)" opacity=".488"/>
    <path d="m294.92 15.953c-0.81601 0.69923-0.84247 1.8565-0.059082 2.5849 0.78339 0.72837 2.0799 0.75199 2.8959 0.052752 0.81598-0.69923 0.84247-1.8565 0.059113-2.5849-0.78189-0.72694-2.0753-0.75211-2.8918-0.056268" fill="#fff" filter="url(#q)" opacity=".595"/>
    <g fill="#0e232e">
     <path d="m291.39 13.639c-0.76208 3.5253-0.2204 7.58 1.6039 10.328 2.5134 3.7864 6.5089 3.6595 8.9217-0.2847 1.0878-1.7781 1.6708-4.0288 1.7504-6.311-0.28723 1.3409-0.76856 2.6051-1.4343 3.6932-2.4128 3.9442-6.4006 4.079-8.914 0.29261-1.385-2.0865-2.0301-4.9295-1.9277-7.7186z" opacity=".132"/>
     <path d="m254.01 19.34c-0.88126-6.0074-0.25488-12.917 1.8547-17.601 2.9063-6.4525 7.5266-6.2362 10.317 0.48516 1.2579 3.0301 1.9321 6.8654 2.0241 10.754-0.33221-2.285-0.88879-4.4393-1.6585-6.2937-2.79-6.7213-7.4014-6.9511-10.308-0.49864-1.6015 3.5555-2.3475 8.4003-2.2292 13.153z" opacity=".132"/>
    </g>
    <path d="m265.37 4.942c2.7596 4.4527 2.849 11.822 0.19983 16.46-2.6492 4.6382-7.0339 4.7886-9.7935 0.33592s-2.8491-11.822-0.19986-16.46c2.644-4.6291 7.0181-4.7894 9.7796-0.35829" fill="url(#r)" filter="url(#p)" opacity=".488"/>
    <path d="m257.48 16.598c-0.81601 0.69923-0.84247 1.8565-0.059113 2.5849 0.78336 0.72837 2.0799 0.75199 2.8959 0.05275 0.81604-0.69923 0.8425-1.8565 0.059113-2.5849-0.78183-0.72694-2.0753-0.75211-2.8918-0.056271" fill="#fff" filter="url(#q)" opacity=".595"/>
   </g>
   <g stroke="#add40b">
    <g transform="matrix(.46698 0 0 .77594 -80.972 313.05)" fill="#b88100" opacity=".088">
     <path d="m753.39-102.02c1.0326 2.395 1.066 6.359 0.074829 8.8538-0.99127 2.4948-2.632 2.5757-3.6645 0.18068-1.0326-2.395-1.0659-6.359-0.074707-8.8538 0.98926-2.4899 2.626-2.5761 3.6592-0.19272"/>
     <path d="m769.46-102.02c1.0326 2.395 1.066 6.359 0.074707 8.8538-0.99121 2.4948-2.6318 2.5757-3.6645 0.18068-1.0324-2.395-1.0659-6.359-0.074646-8.8538 0.98926-2.4899 2.6259-2.5761 3.6592-0.19272"/>
     <path d="m763.03-73.987c1.0326 2.395 1.0661 6.359 0.07489 8.8538s-2.6318 2.5757-3.6645 0.18068c-1.0324-2.395-1.066-6.359-0.074646-8.8538 0.98926-2.4899 2.626-2.5761 3.6592-0.19272"/>
     <path d="m780.7-73.987c1.0326 2.395 1.066 6.359 0.074829 8.8538-0.99127 2.4948-2.632 2.5757-3.6646 0.18068-1.0324-2.395-1.0659-6.359-0.074646-8.8538 0.98938-2.4899 2.626-2.5761 3.6592-0.19272"/>
     <path d="m772.67-61.051c1.0326 2.395 1.066 6.359 0.074707 8.8538-0.99121 2.4948-2.6317 2.5757-3.6643 0.18069s-1.0662-6.3589-0.074829-8.8538c0.98938-2.4899 2.626-2.5761 3.6593-0.1927"/>
     <path d="m750.18-61.051c1.0325 2.395 1.0659 6.359 0.074829 8.8538-0.99133 2.4948-2.632 2.5757-3.6644 0.18069-1.0327-2.395-1.066-6.3589-0.074951-8.8538 0.98932-2.4899 2.626-2.5761 3.6593-0.1927"/>
     <path d="m743.76-73.987c1.0325 2.395 1.0659 6.359 0.074646 8.8538-0.99127 2.4948-2.6318 2.5757-3.6644 0.18068s-1.066-6.359-0.074829-8.8538c0.98938-2.4899 2.626-2.5761 3.6591-0.19272"/>
    </g>
    <g fill="#f60">
     <g transform="matrix(.5 0 0 .5 -103.38 314.46)" opacity=".088">
      <path d="m753.22-90.088c1.0326 2.395 1.066 6.359 0.074829 8.8538-0.99133 2.4948-2.632 2.5757-3.6644 0.1807-1.0326-2.395-1.066-6.359-0.074829-8.8538 0.98926-2.4899 2.626-2.5761 3.6593-0.1927"/>
      <path d="m769.28-90.088c1.0326 2.395 1.066 6.359 0.074829 8.8538-0.99133 2.4948-2.632 2.5757-3.6644 0.1807-1.0326-2.395-1.066-6.359-0.074829-8.8538 0.98926-2.4899 2.626-2.5761 3.6592-0.1927"/>
      <path d="m762.85-62.059c1.0325 2.395 1.066 6.359 0.074707 8.8538-0.99121 2.4948-2.6318 2.5757-3.6644 0.1807-1.0325-2.395-1.066-6.359-0.074707-8.8538 0.98926-2.4899 2.626-2.5761 3.6592-0.19272"/>
      <path d="m780.52-62.059c1.0326 2.395 1.066 6.359 0.074829 8.8538-0.99121 2.4948-2.6318 2.5757-3.6644 0.1807s-1.066-6.359-0.074829-8.8538c0.98938-2.4899 2.626-2.5761 3.6593-0.19272"/>
      <path d="m772.49-49.122c1.0326 2.395 1.066 6.359 0.074829 8.8538-0.99121 2.4948-2.6318 2.5757-3.6644 0.18069s-1.066-6.359-0.074829-8.8538c0.98938-2.4899 2.626-2.5761 3.6593-0.19272"/>
      <path d="m750-49.122c1.0326 2.395 1.066 6.359 0.074829 8.8538-0.99133 2.4948-2.632 2.5757-3.6644 0.18069-1.0326-2.395-1.066-6.359-0.074829-8.8538 0.98926-2.4899 2.626-2.5761 3.6592-0.19272"/>
      <path d="m743.58-62.059c1.0325 2.395 1.066 6.359 0.074707 8.8538-0.99121 2.4948-2.6318 2.5757-3.6644 0.1807s-1.066-6.359-0.074707-8.8538c0.98926-2.4899 2.6258-2.5761 3.6592-0.19272"/>
     </g>
     <g transform="matrix(.5 0 0 .5 -123.38 314.46)" opacity=".088">
      <path d="m753.22-90.088c1.0326 2.395 1.066 6.359 0.074829 8.8538-0.99133 2.4948-2.632 2.5757-3.6644 0.1807-1.0326-2.395-1.066-6.359-0.074829-8.8538 0.98926-2.4899 2.626-2.5761 3.6593-0.1927"/>
      <path d="m769.28-90.088c1.0326 2.395 1.066 6.359 0.074829 8.8538-0.99133 2.4948-2.632 2.5757-3.6644 0.1807-1.0326-2.395-1.066-6.359-0.074829-8.8538 0.98926-2.4899 2.626-2.5761 3.6592-0.1927"/>
      <path d="m762.85-62.059c1.0325 2.395 1.066 6.359 0.074707 8.8538-0.99121 2.4948-2.6318 2.5757-3.6644 0.1807-1.0325-2.395-1.066-6.359-0.074707-8.8538 0.98926-2.4899 2.626-2.5761 3.6592-0.19272"/>
      <path d="m780.52-62.059c1.0326 2.395 1.066 6.359 0.074829 8.8538-0.99121 2.4948-2.6318 2.5757-3.6644 0.1807s-1.066-6.359-0.074829-8.8538c0.98938-2.4899 2.626-2.5761 3.6593-0.19272"/>
      <path d="m772.49-49.122c1.0326 2.395 1.066 6.359 0.074829 8.8538-0.99121 2.4948-2.6318 2.5757-3.6644 0.18069s-1.066-6.359-0.074829-8.8538c0.98938-2.4899 2.626-2.5761 3.6593-0.19272"/>
      <path d="m750-49.122c1.0326 2.395 1.066 6.359 0.074829 8.8538-0.99133 2.4948-2.632 2.5757-3.6644 0.18069-1.0326-2.395-1.066-6.359-0.074829-8.8538 0.98926-2.4899 2.626-2.5761 3.6592-0.19272"/>
      <path d="m743.58-62.059c1.0325 2.395 1.066 6.359 0.074707 8.8538-0.99121 2.4948-2.6318 2.5757-3.6644 0.1807s-1.066-6.359-0.074707-8.8538c0.98926-2.4899 2.6258-2.5761 3.6592-0.19272"/>
     </g>
     <g transform="matrix(.46698 0 0 .77594 -108.06 322.36)" opacity=".088">
      <path d="m753.39-102.02c1.0326 2.395 1.066 6.359 0.074829 8.8538-0.99127 2.4948-2.632 2.5757-3.6645 0.18068-1.0326-2.395-1.0659-6.359-0.074707-8.8538 0.98926-2.4899 2.626-2.5761 3.6592-0.19272"/>
      <path d="m769.46-102.02c1.0326 2.395 1.066 6.359 0.074707 8.8538-0.99121 2.4948-2.6318 2.5757-3.6645 0.18068-1.0324-2.395-1.0659-6.359-0.074646-8.8538 0.98926-2.4899 2.6259-2.5761 3.6592-0.19272"/>
      <path d="m763.03-73.987c1.0326 2.395 1.0661 6.359 0.07489 8.8538s-2.6318 2.5757-3.6645 0.18068c-1.0324-2.395-1.066-6.359-0.074646-8.8538 0.98926-2.4899 2.626-2.5761 3.6592-0.19272"/>
      <path d="m780.7-73.987c1.0326 2.395 1.066 6.359 0.074829 8.8538-0.99127 2.4948-2.632 2.5757-3.6646 0.18068-1.0324-2.395-1.0659-6.359-0.074646-8.8538 0.98938-2.4899 2.626-2.5761 3.6592-0.19272"/>
      <path d="m772.67-61.051c1.0326 2.395 1.066 6.359 0.074707 8.8538-0.99121 2.4948-2.6317 2.5757-3.6643 0.18069s-1.0662-6.3589-0.074829-8.8538c0.98938-2.4899 2.626-2.5761 3.6593-0.1927"/>
      <path d="m750.18-61.051c1.0325 2.395 1.0659 6.359 0.074829 8.8538-0.99133 2.4948-2.632 2.5757-3.6644 0.18069-1.0327-2.395-1.066-6.3589-0.074951-8.8538 0.98932-2.4899 2.626-2.5761 3.6593-0.1927"/>
      <path d="m743.76-73.987c1.0325 2.395 1.0659 6.359 0.074646 8.8538-0.99127 2.4948-2.6318 2.5757-3.6644 0.18068s-1.066-6.359-0.074829-8.8538c0.98938-2.4899 2.626-2.5761 3.6591-0.19272"/>
     </g>
    </g>
    <g fill="#b88100">
     <g transform="matrix(.5 0 0 .5 -95.598 180.88)" opacity=".088">
      <path d="m753.22-90.088c1.0326 2.395 1.066 6.359 0.074829 8.8538-0.99133 2.4948-2.632 2.5757-3.6644 0.1807-1.0326-2.395-1.066-6.359-0.074829-8.8538 0.98926-2.4899 2.626-2.5761 3.6593-0.1927"/>
      <path d="m769.28-90.088c1.0326 2.395 1.066 6.359 0.074829 8.8538-0.99133 2.4948-2.632 2.5757-3.6644 0.1807-1.0326-2.395-1.066-6.359-0.074829-8.8538 0.98926-2.4899 2.626-2.5761 3.6592-0.1927"/>
      <path d="m762.85-62.059c1.0325 2.395 1.066 6.359 0.074707 8.8538-0.99121 2.4948-2.6318 2.5757-3.6644 0.1807-1.0325-2.395-1.066-6.359-0.074707-8.8538 0.98926-2.4899 2.626-2.5761 3.6592-0.19272"/>
      <path d="m780.52-62.059c1.0326 2.395 1.066 6.359 0.074829 8.8538-0.99121 2.4948-2.6318 2.5757-3.6644 0.1807s-1.066-6.359-0.074829-8.8538c0.98938-2.4899 2.626-2.5761 3.6593-0.19272"/>
      <path d="m772.49-49.122c1.0326 2.395 1.066 6.359 0.074829 8.8538-0.99121 2.4948-2.6318 2.5757-3.6644 0.18069s-1.066-6.359-0.074829-8.8538c0.98938-2.4899 2.626-2.5761 3.6593-0.19272"/>
      <path d="m750-49.122c1.0326 2.395 1.066 6.359 0.074829 8.8538-0.99133 2.4948-2.632 2.5757-3.6644 0.18069-1.0326-2.395-1.066-6.359-0.074829-8.8538 0.98926-2.4899 2.626-2.5761 3.6592-0.19272"/>
      <path d="m743.58-62.059c1.0325 2.395 1.066 6.359 0.074707 8.8538-0.99121 2.4948-2.6318 2.5757-3.6644 0.1807s-1.066-6.359-0.074707-8.8538c0.98926-2.4899 2.6258-2.5761 3.6592-0.19272"/>
     </g>
     <g transform="matrix(.5 0 0 .5 -65.598 180.88)" opacity=".088">
      <path d="m753.22-90.088c1.0326 2.395 1.066 6.359 0.074829 8.8538-0.99133 2.4948-2.632 2.5757-3.6644 0.1807-1.0326-2.395-1.066-6.359-0.074829-8.8538 0.98926-2.4899 2.626-2.5761 3.6593-0.1927"/>
      <path d="m769.28-90.088c1.0326 2.395 1.066 6.359 0.074829 8.8538-0.99133 2.4948-2.632 2.5757-3.6644 0.1807-1.0326-2.395-1.066-6.359-0.074829-8.8538 0.98926-2.4899 2.626-2.5761 3.6592-0.1927"/>
      <path d="m762.85-62.059c1.0325 2.395 1.066 6.359 0.074707 8.8538-0.99121 2.4948-2.6318 2.5757-3.6644 0.1807-1.0325-2.395-1.066-6.359-0.074707-8.8538 0.98926-2.4899 2.626-2.5761 3.6592-0.19272"/>
      <path d="m780.52-62.059c1.0326 2.395 1.066 6.359 0.074829 8.8538-0.99121 2.4948-2.6318 2.5757-3.6644 0.1807s-1.066-6.359-0.074829-8.8538c0.98938-2.4899 2.626-2.5761 3.6593-0.19272"/>
      <path d="m772.49-49.122c1.0326 2.395 1.066 6.359 0.074829 8.8538-0.99121 2.4948-2.6318 2.5757-3.6644 0.18069s-1.066-6.359-0.074829-8.8538c0.98938-2.4899 2.626-2.5761 3.6593-0.19272"/>
      <path d="m750-49.122c1.0326 2.395 1.066 6.359 0.074829 8.8538-0.99133 2.4948-2.632 2.5757-3.6644 0.18069-1.0326-2.395-1.066-6.359-0.074829-8.8538 0.98926-2.4899 2.626-2.5761 3.6592-0.19272"/>
      <path d="m743.58-62.059c1.0325 2.395 1.066 6.359 0.074707 8.8538-0.99121 2.4948-2.6318 2.5757-3.6644 0.1807s-1.066-6.359-0.074707-8.8538c0.98926-2.4899 2.6258-2.5761 3.6592-0.19272"/>
     </g>
     <g transform="matrix(.5 0 0 .5 -35.598 180.88)" opacity=".088">
      <path d="m753.22-90.088c1.0326 2.395 1.066 6.359 0.074829 8.8538-0.99133 2.4948-2.632 2.5757-3.6644 0.1807-1.0326-2.395-1.066-6.359-0.074829-8.8538 0.98926-2.4899 2.626-2.5761 3.6593-0.1927"/>
      <path d="m769.28-90.088c1.0326 2.395 1.066 6.359 0.074829 8.8538-0.99133 2.4948-2.632 2.5757-3.6644 0.1807-1.0326-2.395-1.066-6.359-0.074829-8.8538 0.98926-2.4899 2.626-2.5761 3.6592-0.1927"/>
      <path d="m762.85-62.059c1.0325 2.395 1.066 6.359 0.074707 8.8538-0.99121 2.4948-2.6318 2.5757-3.6644 0.1807-1.0325-2.395-1.066-6.359-0.074707-8.8538 0.98926-2.4899 2.626-2.5761 3.6592-0.19272"/>
      <path d="m780.52-62.059c1.0326 2.395 1.066 6.359 0.074829 8.8538-0.99121 2.4948-2.6318 2.5757-3.6644 0.1807s-1.066-6.359-0.074829-8.8538c0.98938-2.4899 2.626-2.5761 3.6593-0.19272"/>
      <path d="m772.49-49.122c1.0326 2.395 1.066 6.359 0.074829 8.8538-0.99121 2.4948-2.6318 2.5757-3.6644 0.18069s-1.066-6.359-0.074829-8.8538c0.98938-2.4899 2.626-2.5761 3.6593-0.19272"/>
      <path d="m750-49.122c1.0326 2.395 1.066 6.359 0.074829 8.8538-0.99133 2.4948-2.632 2.5757-3.6644 0.18069-1.0326-2.395-1.066-6.359-0.074829-8.8538 0.98926-2.4899 2.626-2.5761 3.6592-0.19272"/>
      <path d="m743.58-62.059c1.0325 2.395 1.066 6.359 0.074707 8.8538-0.99121 2.4948-2.6318 2.5757-3.6644 0.1807s-1.066-6.359-0.074707-8.8538c0.98926-2.4899 2.6258-2.5761 3.6592-0.19272"/>
     </g>
     <g transform="matrix(.5 0 0 .5 -19.463 177.43)" opacity=".088">
      <path d="m753.22-90.088c1.0326 2.395 1.066 6.359 0.074829 8.8538-0.99133 2.4948-2.632 2.5757-3.6644 0.1807-1.0326-2.395-1.066-6.359-0.074829-8.8538 0.98926-2.4899 2.626-2.5761 3.6593-0.1927"/>
      <path d="m769.28-90.088c1.0326 2.395 1.066 6.359 0.074829 8.8538-0.99133 2.4948-2.632 2.5757-3.6644 0.1807-1.0326-2.395-1.066-6.359-0.074829-8.8538 0.98926-2.4899 2.626-2.5761 3.6592-0.1927"/>
      <path d="m762.85-62.059c1.0325 2.395 1.066 6.359 0.074707 8.8538-0.99121 2.4948-2.6318 2.5757-3.6644 0.1807-1.0325-2.395-1.066-6.359-0.074707-8.8538 0.98926-2.4899 2.626-2.5761 3.6592-0.19272"/>
      <path d="m780.52-62.059c1.0326 2.395 1.066 6.359 0.074829 8.8538-0.99121 2.4948-2.6318 2.5757-3.6644 0.1807s-1.066-6.359-0.074829-8.8538c0.98938-2.4899 2.626-2.5761 3.6593-0.19272"/>
      <path d="m772.49-49.122c1.0326 2.395 1.066 6.359 0.074829 8.8538-0.99121 2.4948-2.6318 2.5757-3.6644 0.18069s-1.066-6.359-0.074829-8.8538c0.98938-2.4899 2.626-2.5761 3.6593-0.19272"/>
      <path d="m750-49.122c1.0326 2.395 1.066 6.359 0.074829 8.8538-0.99133 2.4948-2.632 2.5757-3.6644 0.18069-1.0326-2.395-1.066-6.359-0.074829-8.8538 0.98926-2.4899 2.626-2.5761 3.6592-0.19272"/>
      <path d="m743.58-62.059c1.0325 2.395 1.066 6.359 0.074707 8.8538-0.99121 2.4948-2.6318 2.5757-3.6644 0.1807s-1.066-6.359-0.074707-8.8538c0.98926-2.4899 2.6258-2.5761 3.6592-0.19272"/>
     </g>
    </g>
    <g fill="#f60">
     <g transform="matrix(.5 0 0 .5 -112.38 324.46)" opacity=".088">
      <path d="m753.22-90.088c1.0326 2.395 1.066 6.359 0.074829 8.8538-0.99133 2.4948-2.632 2.5757-3.6644 0.1807-1.0326-2.395-1.066-6.359-0.074829-8.8538 0.98926-2.4899 2.626-2.5761 3.6593-0.1927"/>
      <path d="m769.28-90.088c1.0326 2.395 1.066 6.359 0.074829 8.8538-0.99133 2.4948-2.632 2.5757-3.6644 0.1807-1.0326-2.395-1.066-6.359-0.074829-8.8538 0.98926-2.4899 2.626-2.5761 3.6592-0.1927"/>
      <path d="m762.85-62.059c1.0325 2.395 1.066 6.359 0.074707 8.8538-0.99121 2.4948-2.6318 2.5757-3.6644 0.1807-1.0325-2.395-1.066-6.359-0.074707-8.8538 0.98926-2.4899 2.626-2.5761 3.6592-0.19272"/>
      <path d="m780.52-62.059c1.0326 2.395 1.066 6.359 0.074829 8.8538-0.99121 2.4948-2.6318 2.5757-3.6644 0.1807s-1.066-6.359-0.074829-8.8538c0.98938-2.4899 2.626-2.5761 3.6593-0.19272"/>
      <path d="m772.49-49.122c1.0326 2.395 1.066 6.359 0.074829 8.8538-0.99121 2.4948-2.6318 2.5757-3.6644 0.18069s-1.066-6.359-0.074829-8.8538c0.98938-2.4899 2.626-2.5761 3.6593-0.19272"/>
      <path d="m750-49.122c1.0326 2.395 1.066 6.359 0.074829 8.8538-0.99133 2.4948-2.632 2.5757-3.6644 0.18069-1.0326-2.395-1.066-6.359-0.074829-8.8538 0.98926-2.4899 2.626-2.5761 3.6592-0.19272"/>
      <path d="m743.58-62.059c1.0325 2.395 1.066 6.359 0.074707 8.8538-0.99121 2.4948-2.6318 2.5757-3.6644 0.1807s-1.066-6.359-0.074707-8.8538c0.98926-2.4899 2.6258-2.5761 3.6592-0.19272"/>
     </g>
     <g transform="matrix(.5 0 0 .5 -82.378 324.46)" opacity=".088">
      <path d="m753.22-90.088c1.0326 2.395 1.066 6.359 0.074829 8.8538-0.99133 2.4948-2.632 2.5757-3.6644 0.1807-1.0326-2.395-1.066-6.359-0.074829-8.8538 0.98926-2.4899 2.626-2.5761 3.6593-0.1927"/>
      <path d="m769.28-90.088c1.0326 2.395 1.066 6.359 0.074829 8.8538-0.99133 2.4948-2.632 2.5757-3.6644 0.1807-1.0326-2.395-1.066-6.359-0.074829-8.8538 0.98926-2.4899 2.626-2.5761 3.6592-0.1927"/>
      <path d="m762.85-62.059c1.0325 2.395 1.066 6.359 0.074707 8.8538-0.99121 2.4948-2.6318 2.5757-3.6644 0.1807-1.0325-2.395-1.066-6.359-0.074707-8.8538 0.98926-2.4899 2.626-2.5761 3.6592-0.19272"/>
      <path d="m780.52-62.059c1.0326 2.395 1.066 6.359 0.074829 8.8538-0.99121 2.4948-2.6318 2.5757-3.6644 0.1807s-1.066-6.359-0.074829-8.8538c0.98938-2.4899 2.626-2.5761 3.6593-0.19272"/>
      <path d="m772.49-49.122c1.0326 2.395 1.066 6.359 0.074829 8.8538-0.99121 2.4948-2.6318 2.5757-3.6644 0.18069s-1.066-6.359-0.074829-8.8538c0.98938-2.4899 2.626-2.5761 3.6593-0.19272"/>
      <path d="m750-49.122c1.0326 2.395 1.066 6.359 0.074829 8.8538-0.99133 2.4948-2.632 2.5757-3.6644 0.18069-1.0326-2.395-1.066-6.359-0.074829-8.8538 0.98926-2.4899 2.626-2.5761 3.6592-0.19272"/>
      <path d="m743.58-62.059c1.0325 2.395 1.066 6.359 0.074707 8.8538-0.99121 2.4948-2.6318 2.5757-3.6644 0.1807s-1.066-6.359-0.074707-8.8538c0.98926-2.4899 2.6258-2.5761 3.6592-0.19272"/>
     </g>
    </g>
    <g fill="#9ade00">
     <g transform="matrix(.5 0 0 .5 -72.378 324.46)" opacity=".088">
      <path d="m753.22-90.088c1.0326 2.395 1.066 6.359 0.074829 8.8538-0.99133 2.4948-2.632 2.5757-3.6644 0.1807-1.0326-2.395-1.066-6.359-0.074829-8.8538 0.98926-2.4899 2.626-2.5761 3.6593-0.1927"/>
      <path d="m769.28-90.088c1.0326 2.395 1.066 6.359 0.074829 8.8538-0.99133 2.4948-2.632 2.5757-3.6644 0.1807-1.0326-2.395-1.066-6.359-0.074829-8.8538 0.98926-2.4899 2.626-2.5761 3.6592-0.1927"/>
      <path d="m762.85-62.059c1.0325 2.395 1.066 6.359 0.074707 8.8538-0.99121 2.4948-2.6318 2.5757-3.6644 0.1807-1.0325-2.395-1.066-6.359-0.074707-8.8538 0.98926-2.4899 2.626-2.5761 3.6592-0.19272"/>
      <path d="m780.52-62.059c1.0326 2.395 1.066 6.359 0.074829 8.8538-0.99121 2.4948-2.6318 2.5757-3.6644 0.1807s-1.066-6.359-0.074829-8.8538c0.98938-2.4899 2.626-2.5761 3.6593-0.19272"/>
      <path d="m772.49-49.122c1.0326 2.395 1.066 6.359 0.074829 8.8538-0.99121 2.4948-2.6318 2.5757-3.6644 0.18069s-1.066-6.359-0.074829-8.8538c0.98938-2.4899 2.626-2.5761 3.6593-0.19272"/>
      <path d="m750-49.122c1.0326 2.395 1.066 6.359 0.074829 8.8538-0.99133 2.4948-2.632 2.5757-3.6644 0.18069-1.0326-2.395-1.066-6.359-0.074829-8.8538 0.98926-2.4899 2.626-2.5761 3.6592-0.19272"/>
      <path d="m743.58-62.059c1.0325 2.395 1.066 6.359 0.074707 8.8538-0.99121 2.4948-2.6318 2.5757-3.6644 0.1807s-1.066-6.359-0.074707-8.8538c0.98926-2.4899 2.6258-2.5761 3.6592-0.19272"/>
     </g>
     <g transform="matrix(.5 0 0 .5 -26.243 312.19)" opacity=".088">
      <path d="m753.22-90.088c1.0326 2.395 1.066 6.359 0.074829 8.8538-0.99133 2.4948-2.632 2.5757-3.6644 0.1807-1.0326-2.395-1.066-6.359-0.074829-8.8538 0.98926-2.4899 2.626-2.5761 3.6593-0.1927"/>
      <path d="m769.28-90.088c1.0326 2.395 1.066 6.359 0.074829 8.8538-0.99133 2.4948-2.632 2.5757-3.6644 0.1807-1.0326-2.395-1.066-6.359-0.074829-8.8538 0.98926-2.4899 2.626-2.5761 3.6592-0.1927"/>
      <path d="m762.85-62.059c1.0325 2.395 1.066 6.359 0.074707 8.8538-0.99121 2.4948-2.6318 2.5757-3.6644 0.1807-1.0325-2.395-1.066-6.359-0.074707-8.8538 0.98926-2.4899 2.626-2.5761 3.6592-0.19272"/>
      <path d="m780.52-62.059c1.0326 2.395 1.066 6.359 0.074829 8.8538-0.99121 2.4948-2.6318 2.5757-3.6644 0.1807s-1.066-6.359-0.074829-8.8538c0.98938-2.4899 2.626-2.5761 3.6593-0.19272"/>
      <path d="m772.49-49.122c1.0326 2.395 1.066 6.359 0.074829 8.8538-0.99121 2.4948-2.6318 2.5757-3.6644 0.18069s-1.066-6.359-0.074829-8.8538c0.98938-2.4899 2.626-2.5761 3.6593-0.19272"/>
      <path d="m750-49.122c1.0326 2.395 1.066 6.359 0.074829 8.8538-0.99133 2.4948-2.632 2.5757-3.6644 0.18069-1.0326-2.395-1.066-6.359-0.074829-8.8538 0.98926-2.4899 2.626-2.5761 3.6592-0.19272"/>
      <path d="m743.58-62.059c1.0325 2.395 1.066 6.359 0.074707 8.8538-0.99121 2.4948-2.6318 2.5757-3.6644 0.1807s-1.066-6.359-0.074707-8.8538c0.98926-2.4899 2.6258-2.5761 3.6592-0.19272"/>
     </g>
    </g>
    <g transform="matrix(.5 0 0 .5 -13.052 279.73)" fill="#b88100" opacity=".088">
     <path d="m753.22-90.088c1.0326 2.395 1.066 6.359 0.074829 8.8538-0.99133 2.4948-2.632 2.5757-3.6644 0.1807-1.0326-2.395-1.066-6.359-0.074829-8.8538 0.98926-2.4899 2.626-2.5761 3.6593-0.1927"/>
     <path d="m769.28-90.088c1.0326 2.395 1.066 6.359 0.074829 8.8538-0.99133 2.4948-2.632 2.5757-3.6644 0.1807-1.0326-2.395-1.066-6.359-0.074829-8.8538 0.98926-2.4899 2.626-2.5761 3.6592-0.1927"/>
     <path d="m762.85-62.059c1.0325 2.395 1.066 6.359 0.074707 8.8538-0.99121 2.4948-2.6318 2.5757-3.6644 0.1807-1.0325-2.395-1.066-6.359-0.074707-8.8538 0.98926-2.4899 2.626-2.5761 3.6592-0.19272"/>
     <path d="m780.52-62.059c1.0326 2.395 1.066 6.359 0.074829 8.8538-0.99121 2.4948-2.6318 2.5757-3.6644 0.1807s-1.066-6.359-0.074829-8.8538c0.98938-2.4899 2.626-2.5761 3.6593-0.19272"/>
     <path d="m772.49-49.122c1.0326 2.395 1.066 6.359 0.074829 8.8538-0.99121 2.4948-2.6318 2.5757-3.6644 0.18069s-1.066-6.359-0.074829-8.8538c0.98938-2.4899 2.626-2.5761 3.6593-0.19272"/>
     <path d="m750-49.122c1.0326 2.395 1.066 6.359 0.074829 8.8538-0.99133 2.4948-2.632 2.5757-3.6644 0.18069-1.0326-2.395-1.066-6.359-0.074829-8.8538 0.98926-2.4899 2.626-2.5761 3.6592-0.19272"/>
     <path d="m743.58-62.059c1.0325 2.395 1.066 6.359 0.074707 8.8538-0.99121 2.4948-2.6318 2.5757-3.6644 0.1807s-1.066-6.359-0.074707-8.8538c0.98926-2.4899 2.6258-2.5761 3.6592-0.19272"/>
    </g>
    <g transform="matrix(.5 0 0 .5 -53.676 286.71)" fill="#804d00" opacity=".088">
     <path d="m753.22-90.088c1.0326 2.395 1.066 6.359 0.074829 8.8538-0.99133 2.4948-2.632 2.5757-3.6644 0.1807-1.0326-2.395-1.066-6.359-0.074829-8.8538 0.98926-2.4899 2.626-2.5761 3.6593-0.1927"/>
     <path d="m769.28-90.088c1.0326 2.395 1.066 6.359 0.074829 8.8538-0.99133 2.4948-2.632 2.5757-3.6644 0.1807-1.0326-2.395-1.066-6.359-0.074829-8.8538 0.98926-2.4899 2.626-2.5761 3.6592-0.1927"/>
     <path d="m762.85-62.059c1.0325 2.395 1.066 6.359 0.074707 8.8538-0.99121 2.4948-2.6318 2.5757-3.6644 0.1807-1.0325-2.395-1.066-6.359-0.074707-8.8538 0.98926-2.4899 2.626-2.5761 3.6592-0.19272"/>
     <path d="m780.52-62.059c1.0326 2.395 1.066 6.359 0.074829 8.8538-0.99121 2.4948-2.6318 2.5757-3.6644 0.1807s-1.066-6.359-0.074829-8.8538c0.98938-2.4899 2.626-2.5761 3.6593-0.19272"/>
     <path d="m772.49-49.122c1.0326 2.395 1.066 6.359 0.074829 8.8538-0.99121 2.4948-2.6318 2.5757-3.6644 0.18069s-1.066-6.359-0.074829-8.8538c0.98938-2.4899 2.626-2.5761 3.6593-0.19272"/>
     <path d="m750-49.122c1.0326 2.395 1.066 6.359 0.074829 8.8538-0.99133 2.4948-2.632 2.5757-3.6644 0.18069-1.0326-2.395-1.066-6.359-0.074829-8.8538 0.98926-2.4899 2.626-2.5761 3.6592-0.19272"/>
     <path d="m743.58-62.059c1.0325 2.395 1.066 6.359 0.074707 8.8538-0.99121 2.4948-2.6318 2.5757-3.6644 0.1807s-1.066-6.359-0.074707-8.8538c0.98926-2.4899 2.6258-2.5761 3.6592-0.19272"/>
    </g>
    <g transform="matrix(.5 0 0 .5 4.7215 176.35)" fill="#b88100" opacity=".088">
     <path d="m753.22-90.088c1.0326 2.395 1.066 6.359 0.074829 8.8538-0.99133 2.4948-2.632 2.5757-3.6644 0.1807-1.0326-2.395-1.066-6.359-0.074829-8.8538 0.98926-2.4899 2.626-2.5761 3.6593-0.1927"/>
     <path d="m769.28-90.088c1.0326 2.395 1.066 6.359 0.074829 8.8538-0.99133 2.4948-2.632 2.5757-3.6644 0.1807-1.0326-2.395-1.066-6.359-0.074829-8.8538 0.98926-2.4899 2.626-2.5761 3.6592-0.1927"/>
     <path d="m762.85-62.059c1.0325 2.395 1.066 6.359 0.074707 8.8538-0.99121 2.4948-2.6318 2.5757-3.6644 0.1807-1.0325-2.395-1.066-6.359-0.074707-8.8538 0.98926-2.4899 2.626-2.5761 3.6592-0.19272"/>
     <path d="m780.52-62.059c1.0326 2.395 1.066 6.359 0.074829 8.8538-0.99121 2.4948-2.6318 2.5757-3.6644 0.1807s-1.066-6.359-0.074829-8.8538c0.98938-2.4899 2.626-2.5761 3.6593-0.19272"/>
     <path d="m772.49-49.122c1.0326 2.395 1.066 6.359 0.074829 8.8538-0.99121 2.4948-2.6318 2.5757-3.6644 0.18069s-1.066-6.359-0.074829-8.8538c0.98938-2.4899 2.626-2.5761 3.6593-0.19272"/>
     <path d="m750-49.122c1.0326 2.395 1.066 6.359 0.074829 8.8538-0.99133 2.4948-2.632 2.5757-3.6644 0.18069-1.0326-2.395-1.066-6.359-0.074829-8.8538 0.98926-2.4899 2.626-2.5761 3.6592-0.19272"/>
     <path d="m743.58-62.059c1.0325 2.395 1.066 6.359 0.074707 8.8538-0.99121 2.4948-2.6318 2.5757-3.6644 0.1807s-1.066-6.359-0.074707-8.8538c0.98926-2.4899 2.6258-2.5761 3.6592-0.19272"/>
    </g>
   </g>
   <g stroke="#c97413">
    <path d="m277.89 268.71c-1.4423-9.2028-0.41718-19.788 3.0354-26.963 4.7565-9.8846 12.318-9.5532 16.884 0.74324 2.0586 4.6419 3.1621 10.517 3.3127 16.475-0.5437-3.5004-1.4546-6.8007-2.7144-9.6414-4.5663-10.296-12.113-10.648-16.87-0.76387-2.621 5.4468-3.842 12.869-3.6483 20.15z" fill="#0e232e" opacity=".132"/>
    <path d="m295.2 226c4.5164 6.8211 4.6629 18.111 0.32712 25.216-4.3357 7.1054-11.512 7.3358-16.028 0.51462-4.5164-6.8212-4.6628-18.111-0.32709-25.216 4.3272-7.0914 11.486-7.3369 16.006-0.54887" fill="url(#r)" filter="url(#p)" opacity=".488"/>
    <path d="m283.57 264.51c-1.3355 1.0712-1.3788 2.8441-0.096741 3.9599 1.282 1.1158 3.404 1.152 4.7395 0.080811s1.3788-2.8441 0.09671-3.9599c-1.2795-1.1136-3.3964-1.1522-4.7328-0.086182" fill="#fff" filter="url(#q)" opacity=".595"/>
    <path d="m354.69 156.81c-0.88123-6.0074-0.25488-12.917 1.8547-17.601 2.9063-6.4525 7.5266-6.2362 10.317 0.48515 1.2578 3.0301 1.9321 6.8654 2.0241 10.754-0.33221-2.285-0.88879-4.4393-1.6585-6.2937-2.7901-6.7213-7.4014-6.9511-10.308-0.49864-1.6015 3.5555-2.3475 8.4003-2.2292 13.153z" fill="#0e232e" opacity=".132"/>
    <path d="m366.05 142.41c2.7596 4.4527 2.8491 11.822 0.19989 16.461-2.6492 4.6382-7.0339 4.7886-9.7935 0.33592s-2.8491-11.822-0.19983-16.461c2.644-4.6291 7.0181-4.7894 9.7796-0.35828" fill="url(#r)" filter="url(#p)" opacity=".488"/>
    <path d="m341.38 227.64c-0.81598 0.69922-0.84247 1.8566-0.059082 2.5849 0.78339 0.72839 2.0799 0.752 2.8959 0.052765 0.81598-0.69925 0.84247-1.8565 0.059082-2.5849-0.7818-0.72696-2.0753-0.75211-2.8918-0.056259" fill="#fff" filter="url(#q)" opacity=".595"/>
    <g fill="#0e232e">
     <path d="m337.86 225.33c-0.76208 3.5253-0.2204 7.5801 1.6039 10.328 2.5134 3.7864 6.5089 3.6595 8.9218-0.2847 1.0877-1.7781 1.6708-4.0288 1.7504-6.311-0.28723 1.3409-0.76856 2.6051-1.4343 3.6933-2.4128 3.9442-6.4006 4.079-8.9139 0.29262-1.385-2.0865-2.0301-4.9295-1.9278-7.7187z" opacity=".132"/>
     <path d="m317.26 157.45c-0.88123-6.0074-0.25488-12.917 1.8547-17.601 2.9063-6.4525 7.5266-6.2362 10.317 0.48515 1.2578 3.0301 1.9321 6.8654 2.0241 10.754-0.33221-2.285-0.88879-4.4393-1.6585-6.2937-2.7901-6.7213-7.4014-6.9511-10.308-0.49864-1.6015 3.5555-2.3475 8.4003-2.2292 13.153z" opacity=".132"/>
    </g>
    <path d="m328.62 143.06c2.7596 4.4527 2.8491 11.822 0.19989 16.461-2.6492 4.6382-7.0339 4.7886-9.7935 0.33592s-2.8491-11.822-0.19983-16.46c2.644-4.6291 7.0181-4.7894 9.7796-0.35829" fill="url(#r)" filter="url(#p)" opacity=".488"/>
    <path d="m303.95 228.29c-0.81598 0.69925-0.84247 1.8565-0.059082 2.5849 0.78339 0.72839 2.0799 0.75201 2.8959 0.052765 0.81598-0.69925 0.84247-1.8566 0.059082-2.5849-0.7818-0.72696-2.0753-0.75211-2.8918-0.056274" fill="#fff" filter="url(#q)" opacity=".595"/>
   </g>
  </g>
 </g>
 <g stroke-width="0">
  <path d="m228.28 201.38c-12.781 47.732-38.943 82.205-58.425 76.984-19.482-5.2201-24.902-48.155-12.105-95.883 12.781-47.732 38.943-82.205 58.425-76.985 19.482 5.2201 24.902 48.155 12.105 95.883z" fill="url(#ac)" opacity=".312"/>
  <g stroke-dasharray="null">
   <g fill="#fff">
    <ellipse cx="251" cy="163" rx="44" ry="65"/>
    <ellipse cx="251" cy="151"/>
    <ellipse cx="571" cy="390"/>
    <ellipse cx="264" cy="153"/>
    <ellipse cx="373" cy="160" rx="44" ry="65"/>
   </g>
   <ellipse cx="255" cy="164.5" rx="36" ry="45.5"/>
   <ellipse cx="372" cy="163.5" rx="36" ry="47.5"/>
   <path d="m301.32 279c46.2 17.872 39.6 28.298 39.6 28.298l-47.52 41.702-29.04-14.894-30.36-55.106h67.321z"/>
   <ellipse transform="rotate(20 285 317)" cx="285" cy="317" rx="29" ry="19" fill="#f0f"/>
  </g>
 </g>
</svg>
